<svg width="24" height="24" viewBox="0 0 24 24" fill="none" xmlns="http://www.w3.org/2000/svg">
<path fill-rule="evenodd" clip-rule="evenodd" d="M10.117 1.25C9.48925 1.24994 8.87643 1.4415 8.36046 1.79907ZM10.1169 2.75C9.79453 2.74996 9.47982 2.84833 9.21485 3.03195C8.9539 3.2128 8.75343 3.46785 8.63933 3.76388L6.03363 11.75H17.9664L15.3607 3.76389C15.2466 3.46785 15.0461 3.2128 14.7852 3.03195C14.5202 2.84833 14.2055 2.74996 13.8831 2.75H10.1169ZM10.117 1.25H13.8829C13.8829 1.25 13.8829 1.25 13.8829 1.25C14.5107 1.24994 15.1236 1.4415 15.6396 1.79907C16.1556 2.15666 16.5501 2.66323 16.7705 3.25108C16.7742 3.26121 16.7778 3.27141 16.7812 3.28169L19.713 12.2674C19.7875 12.4958 19.7481 12.746 19.607 12.9405C19.4659 13.1349 19.2402 13.25 19 13.25H12.75V22.25H15.5C15.9142 22.25 16.25 22.5858 16.25 23C16.25 23.4142 15.9142 23.75 15.5 23.75H8.50001C8.08579 23.75 7.75001 23.4142 7.75001 23C7.75001 22.5858 8.08579 22.25 8.50001 22.25H11.25V13.25H5.00001C4.75976 13.25 4.53406 13.1349 4.39297 12.9405C4.25188 12.746 4.21248 12.4958 4.287 12.2674L7.21883 3.28169C7.22219 3.27141 7.22576 3.26121 7.22956 3.25108C7.44991 2.66323 7.84446 2.15666 8.36046 1.79907" fill="#303234"/>
</svg>
