<svg width="30" height="31" viewBox="0 0 30 31" fill="none" xmlns="http://www.w3.org/2000/svg">
<g filter="url(#filter0_d_22_449)">
<path fill-rule="evenodd" clip-rule="evenodd" d="M5.75 2C5.75 1.58579 5.41421 1.25 5 1.25C4.58579 1.25 4.25 1.58579 4.25 2V6.83556C4.25 8.34447 4.71827 9.54951 5.49114 10.3849C6.07455 11.0155 6.80977 11.4104 7.58333 11.5648V22C7.58333 22.4142 7.91912 22.75 8.33333 22.75C8.74755 22.75 9.08333 22.4142 9.08333 22V11.5648C9.8569 11.4104 10.5921 11.0155 11.1755 10.3849C11.9484 9.54951 12.4167 8.34447 12.4167 6.83556V2C12.4167 1.58579 12.0809 1.25 11.6667 1.25C11.2525 1.25 10.9167 1.58579 10.9167 2V6.80556H9.08333V2C9.08333 1.58579 8.74755 1.25 8.33333 1.25C7.91912 1.25 7.58333 1.58579 7.58333 2V6.80556H5.75V2ZM10.0745 9.36623C9.59441 9.88512 8.96207 10.1389 8.33333 10.1389C7.7046 10.1389 7.07226 9.88512 6.5922 9.36623C6.34432 9.0983 6.12669 8.74782 5.97479 8.30556H10.6919C10.54 8.74782 10.3223 9.0983 10.0745 9.36623ZM21.4602 3.45411C22.5824 2.98926 23.7853 2.75 25 2.75C25.4142 2.75 25.75 2.41421 25.75 2C25.75 1.58579 25.4142 1.25 25 1.25C23.5883 1.25 22.1904 1.52806 20.8862 2.06829C19.5819 2.60853 18.3968 3.40037 17.3986 4.3986C16.4004 5.39683 15.6085 6.5819 15.0683 7.88615C14.5281 9.1904 14.25 10.5883 14.25 12C14.25 13.4117 14.5281 14.8096 15.0683 16.1138C15.6085 17.4181 16.4004 18.6032 17.3986 19.6014C18.3968 20.5996 19.5819 21.3915 20.8862 21.9317C22.1904 22.4719 23.5883 22.75 25 22.75C25.4142 22.75 25.75 22.4142 25.75 22C25.75 21.5858 25.4142 21.25 25 21.25C23.7853 21.25 22.5824 21.0107 21.4602 20.5459C20.3379 20.081 19.3182 19.3997 18.4593 18.5407C17.6003 17.6818 16.919 16.6621 16.4541 15.5398C15.9893 14.4176 15.75 13.2147 15.75 12C15.75 10.7853 15.9893 9.58244 16.4541 8.46018C16.919 7.33792 17.6003 6.3182 18.4593 5.45926C19.3182 4.60032 20.3379 3.91897 21.4602 3.45411ZM21.2877 8.28769C22.2723 7.30312 23.6076 6.75 25 6.75C25.4142 6.75 25.75 6.41421 25.75 6C25.75 5.58579 25.4142 5.25 25 5.25C23.2098 5.25 21.4929 5.96116 20.227 7.22703C18.9612 8.4929 18.25 10.2098 18.25 12C18.25 13.7902 18.9612 15.5071 20.227 16.773C21.4929 18.0388 23.2098 18.75 25 18.75C25.4142 18.75 25.75 18.4142 25.75 18C25.75 17.5858 25.4142 17.25 25 17.25C23.6076 17.25 22.2723 16.6969 21.2877 15.7123C20.3031 14.7277 19.75 13.3924 19.75 12C19.75 10.6076 20.3031 9.27225 21.2877 8.28769Z" fill="#303234"/>
</g>
<defs>
<filter id="filter0_d_22_449" x="-1" y="0" width="32" height="32" filterUnits="userSpaceOnUse" color-interpolation-filters="sRGB">
<feFlood flood-opacity="0" result="BackgroundImageFix"/>
<feColorMatrix in="SourceAlpha" type="matrix" values="0 0 0 0 0 0 0 0 0 0 0 0 0 0 0 0 0 0 127 0" result="hardAlpha"/>
<feOffset dy="4"/>
<feGaussianBlur stdDeviation="2"/>
<feComposite in2="hardAlpha" operator="out"/>
<feColorMatrix type="matrix" values="0 0 0 0 0 0 0 0 0 0 0 0 0 0 0 0 0 0 0.25 0"/>
<feBlend mode="normal" in2="BackgroundImageFix" result="effect1_dropShadow_22_449"/>
<feBlend mode="normal" in="SourceGraphic" in2="effect1_dropShadow_22_449" result="shape"/>
</filter>
</defs>
</svg>
