<svg width="24" height="24" viewBox="0 0 24 24" fill="none" xmlns="http://www.w3.org/2000/svg">
<path fill-rule="evenodd" clip-rule="evenodd" d="M5.17423 3.0824C5.89953 2.08284 7.11898 1.25 9 1.25C9.41421 1.25 9.75 1.58579 9.75 2V11.25H10.5C10.9142 11.25 11.25 11.5858 11.25 12V22C11.25 22.4142 10.9142 22.75 10.5 22.75H3.5C3.08579 22.75 2.75 22.4142 2.75 22V12C2.75 11.5858 3.08579 11.25 3.5 11.25H4.25V5.7275C4.25 5.13013 4.47891 4.04061 5.17423 3.0824ZM5.75 11.25H8.25V2.8145C7.33276 2.98198 6.75842 3.45325 6.38827 3.96335C5.89609 4.64164 5.75 5.41587 5.75 5.7275V11.25ZM4.25 12.75V15.25H9.75V12.75H4.25ZM9.75 16.75H4.25V21.25H9.75V16.75ZM13.75 12C13.75 11.5858 14.0858 11.25 14.5 11.25H20.5C20.9142 11.25 21.25 11.5858 21.25 12V22C21.25 22.4142 20.9142 22.75 20.5 22.75H14.5C14.0858 22.75 13.75 22.4142 13.75 22V12ZM15.25 12.75V21.25H19.75V12.75H15.25Z" fill="#303234"/>
</svg>
