<svg width="24" height="24" viewBox="0 0 24 24" fill="none" xmlns="http://www.w3.org/2000/svg">
<g clip-path="url(#clip0_22_458)">
<path fill-rule="evenodd" clip-rule="evenodd" d="M12 0.107117C8.84585 0.107117 5.82086 1.36011 3.59052 3.59045C1.36017 5.8208 0.107178 8.84579 0.107178 12C0.107178 15.1542 1.36017 18.1792 3.59052 20.4095C5.82086 22.6398 8.84585 23.8928 12 23.8928C15.1542 23.8928 18.1792 22.6398 20.4096 20.4095C22.6399 18.1792 23.8929 15.1542 23.8929 12C23.8929 8.84579 22.6399 5.8208 20.4096 3.59045C18.1792 1.36011 15.1542 0.107117 12 0.107117ZM4.74898 4.55459C6.50853 2.84091 8.81325 1.8104 11.25 1.63419V22.3658C8.81326 22.1895 6.50853 21.159 4.74899 19.4454C5.77594 18.6718 6.63452 17.692 7.26744 16.5652C8.05057 15.1711 8.46191 13.599 8.46191 12C8.46191 10.401 8.05057 8.82884 7.26744 7.43473C6.63452 6.30801 5.77593 5.32818 4.74898 4.55459ZM3.74914 5.68056C2.36764 7.48424 1.60718 9.7029 1.60718 12C1.60718 14.297 2.36764 16.5157 3.74914 18.3194C4.65398 17.6595 5.40871 16.8114 5.95965 15.8306C6.61676 14.6608 6.96191 13.3417 6.96191 12C6.96191 10.6583 6.61676 9.33914 5.95965 8.16937C5.40871 7.18858 4.65398 6.34045 3.74914 5.68056ZM19.251 19.4454C17.4915 21.1591 15.1868 22.1895 12.75 22.3658V1.63419C15.1868 1.8104 17.4915 2.84089 19.251 4.55453C18.224 5.32813 17.3654 6.30798 16.7325 7.43473C15.9494 8.82884 15.538 10.401 15.538 12C15.538 13.599 15.9494 15.1711 16.7325 16.5652C17.3654 17.692 18.224 18.6718 19.251 19.4454ZM20.2509 18.3195C21.6324 16.5158 22.3929 14.2971 22.3929 12C22.3929 9.70288 21.6324 7.48418 20.2509 5.68049C19.346 6.34039 18.5912 7.18854 18.0403 8.16937C17.3832 9.33914 17.038 10.6583 17.038 12C17.038 13.3417 17.3832 14.6608 18.0403 15.8306C18.5912 16.8114 19.346 17.6596 20.2509 18.3195Z" fill="#303234"/>
</g>
<defs>
<clipPath id="clip0_22_458">
<rect width="24" height="24" fill="white"/>
</clipPath>
</defs>
</svg>
