<svg width="24" height="24" viewBox="0 0 24 24" fill="none" xmlns="http://www.w3.org/2000/svg">
<path fill-rule="evenodd" clip-rule="evenodd" d="M4.82322 6.17678C4.77634 6.12989 4.75 6.0663 4.75 6V3C4.75 2.9337 4.77634 2.87011 4.82322 2.82322C4.87011 2.77634 4.9337 2.75 5 2.75H19C19.0049 2.75 19.0098 2.75014 19.0146 2.75042C19.0693 2.75358 19.1193 2.77433 19.159 2.80709C19.1652 2.81218 19.1711 2.81757 19.1768 2.82322L19.1831 2.82981C19.2219 2.87151 19.2466 2.92647 19.2497 2.98714C19.2499 2.9914 19.25 2.99569 19.25 3V6C19.25 6.06631 19.2237 6.12989 19.1768 6.17678C19.1299 6.22366 19.0663 6.25 19 6.25H5C4.9337 6.25 4.87011 6.22366 4.82322 6.17678ZM19 7.75C19.0842 7.75 19.1677 7.74394 19.25 7.73206V21C19.25 21.1381 19.1381 21.25 19 21.25H5C4.86193 21.25 4.75 21.1381 4.75 21V7.73206C4.83232 7.74394 4.91585 7.75 5 7.75H19ZM3.25 3C3.25 2.0335 4.0335 1.25 5 1.25H19C19.4756 1.25 19.9068 1.43969 20.2222 1.74755L20.2374 1.76256L20.2546 1.77998C20.5612 2.09519 20.75 2.52555 20.75 3V6V21C20.75 21.9665 19.9665 22.75 19 22.75H5C4.0335 22.75 3.25 21.9665 3.25 21V6V3ZM8 4.5C8 5.05228 7.55228 5.5 7 5.5C6.44772 5.5 6 5.05228 6 4.5C6 3.94772 6.44772 3.5 7 3.5C7.55228 3.5 8 3.94772 8 4.5ZM10 5.5C10.5523 5.5 11 5.05228 11 4.5C11 3.94772 10.5523 3.5 10 3.5C9.44772 3.5 9 3.94772 9 4.5C9 5.05228 9.44772 5.5 10 5.5ZM9.25 14.5C9.25 12.9812 10.4812 11.75 12 11.75C13.5188 11.75 14.75 12.9812 14.75 14.5C14.75 16.0188 13.5188 17.25 12 17.25C10.4812 17.25 9.25 16.0188 9.25 14.5ZM12 10.25C9.65279 10.25 7.75 12.1528 7.75 14.5C7.75 16.8472 9.65279 18.75 12 18.75C14.3472 18.75 16.25 16.8472 16.25 14.5C16.25 12.1528 14.3472 10.25 12 10.25Z" fill="#303234"/>
</svg>
