<svg width="24" height="24" viewBox="0 0 24 24" fill="none" xmlns="http://www.w3.org/2000/svg">
<path fill-rule="evenodd" clip-rule="evenodd" d="M5.58181 2.91429C5.70495 2.85332 5.87995 2.80464 6.21625 2.77792ZM6.21625 2.77792C6.56077 2.75055 7.00591 2.75 7.6579 2.75ZM7.62759 1.25L7.6579 1.25H18.1715C18.9224 1.25 19.6458 1.36977 20.148 1.8762C20.65 2.38239 20.75 3.09348 20.75 3.77778V16.8889C20.75 17.4897 20.6675 18.0668 20.361 18.5282C20.1614 18.8288 19.9004 19.0324 19.6072 19.1676V20.2222C19.6072 20.9606 19.4817 21.6783 18.9561 22.1722C18.4429 22.6546 17.7272 22.75 17.031 22.75H4.85808C3.99076 22.75 3.25099 22.0606 3.25099 21.1667V5.55556C3.25099 5.48976 3.25065 5.4215 3.25031 5.35117C3.24761 4.79678 3.24428 4.11334 3.39813 3.4923C3.58555 2.73571 4.01477 2.01656 4.91601 1.57015L4.91607 1.57012C5.28203 1.38889 5.67156 1.31647 6.09746 1.28263C6.50843 1.24998 7.01339 1.24999 7.62759 1.25ZM4.75099 21.1667C4.75099 21.1825 4.75652 21.2002 4.77494 21.2181C4.79372 21.2364 4.8218 21.25 4.85808 21.25H17.031C17.664 21.25 17.8613 21.1426 17.9289 21.0792C17.9841 21.0273 18.1072 20.856 18.1072 20.2222V19.4167H6.57226C6.08253 19.4167 5.61696 19.606 5.27692 19.9366C4.9376 20.2665 4.75099 20.7095 4.75099 21.1667ZM18.7297 17.8776C19.0098 17.8279 19.078 17.7487 19.1116 17.6982C19.1713 17.6082 19.25 17.3936 19.25 16.8889V3.77778C19.25 3.16986 19.142 2.99205 19.0829 2.93241C19.024 2.87301 18.8331 2.75 18.1715 2.75H7.6579M18.7297 17.8776C18.5839 17.902 18.4002 17.9167 18.1738 17.9167H6.57226C5.92206 17.9167 5.28941 18.1033 4.75099 18.4488V5.55556C4.75099 5.48586 4.75083 5.41754 4.75067 5.35052C4.74932 4.76573 4.7482 4.28054 4.85412 3.85298C4.9581 3.4332 5.15283 3.1268 5.58175 2.91432" fill="#303234"/>
</svg>
