<svg width="24" height="24" viewBox="0 0 24 24" fill="none" xmlns="http://www.w3.org/2000/svg">
<path fill-rule="evenodd" clip-rule="evenodd" d="M5.52739 3.75H5.50876L2.51461 7.67857H7.40631L5.52739 3.75ZM9.54749 7.67857H14.4418L11.9946 4.28281L9.54749 7.67857ZM16.5844 7.67857H21.4881L18.5029 3.75H18.4718L16.5844 7.67857ZM18.0171 2.25C18.0061 2.24976 17.9951 2.24976 17.9841 2.25H11.9984C11.9971 2.24999 11.9959 2.24999 11.9946 2.24999C11.9934 2.24999 11.9922 2.24999 11.9909 2.25H6.01606C6.00506 2.24976 5.99403 2.24976 5.98299 2.25H5.13738C4.90335 2.25 4.68273 2.35924 4.54087 2.54538L0.403496 7.97395C0.193775 8.24912 0.199499 8.63204 0.417352 8.90082L11.4174 22.4723C11.5598 22.6479 11.7738 22.75 12 22.75C12.2262 22.75 12.4402 22.6479 12.5826 22.4723L23.5826 8.90082C23.8002 8.63236 23.8062 8.24996 23.5972 7.97481L19.4722 2.54624C19.3303 2.3596 19.1094 2.25 18.875 2.25H18.0171ZM7.19012 3.75L8.52234 6.53548L10.5297 3.75H7.19012ZM13.4596 3.75L15.4684 6.53754L16.8077 3.75H13.4596ZM16.6809 9.17857H21.4267L13.8335 18.5468L16.6809 9.17857ZM15.1132 9.17857L12 19.421L8.88684 9.17857H15.1132ZM2.57332 9.17857H7.31908L10.1665 18.5468L2.57332 9.17857Z" fill="#303234"/>
</svg>
