<svg width="24" height="24" viewBox="0 0 24 24" fill="none" xmlns="http://www.w3.org/2000/svg">
<path fill-rule="evenodd" clip-rule="evenodd" d="M22.7504 1.24965C23.0832 1.58252 23.0832 2.1222 22.7504 2.45506L15.6794 9.52602C16.5508 10.6612 17.0306 12.0584 17.0306 13.5052C17.0306 15.2383 16.3421 16.9004 15.1167 18.1259L14.3672 18.8754L11.2046 23.6204C11.063 23.8329 10.8335 23.9707 10.5794 23.9958C10.3253 24.021 10.0732 23.9309 9.89265 23.7503L0.249654 14.1074C0.0690758 13.9268 -0.0210206 13.6747 0.00415737 13.4206C0.0293354 13.1665 0.167135 12.937 0.379636 12.7954L5.13143 9.62827L5.87521 8.88449C7.10065 7.65942 8.76258 6.97112 10.4954 6.97112C11.9416 6.97112 13.3384 7.45052 14.4733 8.32132L21.5449 1.24965C21.8778 0.916783 22.4175 0.916783 22.7504 1.24965ZM13.935 10.1138C13.9266 10.1061 13.9183 10.0981 13.9102 10.09C13.0044 9.18451 11.7761 8.67583 10.4954 8.67583C9.21465 8.67583 7.98638 9.18448 7.08062 10.0899C7.08059 10.0899 7.08066 10.0899 7.08062 10.0899L6.87984 10.2907L13.7104 17.1213L13.9112 16.9205C13.9112 16.9205 13.9112 16.9205 13.9112 16.9205C14.817 16.0147 15.3259 14.7862 15.3259 13.5052C15.3259 12.2355 14.8259 11.0173 13.935 10.1138ZM12.6126 18.4342L5.56577 11.3874L2.19033 13.6372L10.3628 21.8097L12.6126 18.4342Z" fill="#303234"/>
</svg>
