<svg width="24" height="24" viewBox="0 0 24 24" fill="none" xmlns="http://www.w3.org/2000/svg">
<path fill-rule="evenodd" clip-rule="evenodd" d="M12.7997 5.33465C12.8679 4.85479 13.0112 4.31707 13.2599 3.85647C13.6167 3.19575 14.1468 2.75 15 2.75C15.4142 2.75 15.75 2.41421 15.75 2C15.75 1.58579 15.4142 1.25 15 1.25C13.4532 1.25 12.4833 2.13775 11.9401 3.14378C11.5424 3.88015 11.3515 4.70721 11.2821 5.3913C10.3843 4.75768 9.25593 4.25 8 4.25C6.33343 4.25 4.8854 5.15813 3.87914 6.41502C2.87207 7.67292 2.25 9.34386 2.25 11.028C2.25 14.6483 2.7725 17.3161 4.87507 20.4847C4.88273 20.4962 4.89072 20.5076 4.89901 20.5187C5.73378 21.6368 6.76518 22.4107 7.96093 22.6625C9.16435 22.916 10.4122 22.615 11.6198 21.8208C11.7339 21.7499 11.8656 21.7122 12 21.7122C12.1344 21.7122 12.2661 21.7499 12.3802 21.8208C13.5878 22.615 14.8356 22.916 16.0391 22.6625C17.2348 22.4107 18.2662 21.6368 19.101 20.5187C19.1093 20.5076 19.1173 20.4962 19.1249 20.4847C21.2275 17.3161 21.75 14.6483 21.75 11.028C21.75 9.34386 21.1279 7.67292 20.1209 6.41502C19.1146 5.15813 17.6666 4.25 16 4.25C14.7816 4.25 13.6839 4.72779 12.7997 5.33465ZM8.39648 8.63664C8.74808 8.41767 8.8556 7.95513 8.63664 7.60352C8.41767 7.25192 7.95513 7.1444 7.60352 7.36336C6.16707 8.25794 5.25 10.1583 5.25 12C5.25 12.4142 5.58579 12.75 6 12.75C6.41421 12.75 6.75 12.4142 6.75 12C6.75 10.5757 7.47893 9.20806 8.39648 8.63664ZM3.75 11.028C3.75 9.69814 4.24743 8.35508 5.05011 7.35248C5.8536 6.34887 6.90557 5.75 8 5.75C9.15586 5.75 10.2678 6.39626 11.1107 7.18169L11.113 7.18386C11.3545 7.40698 11.6712 7.5309 12 7.5309C12.3288 7.5309 12.6455 7.40698 12.887 7.18386L12.889 7.18197C13.7333 6.3961 14.8443 5.75 16 5.75C17.0944 5.75 18.1464 6.34887 18.9499 7.35248C19.7526 8.35508 20.25 9.69814 20.25 11.028C20.25 14.4327 19.7745 16.7862 17.8868 19.6377C17.2049 20.5451 16.4658 21.0397 15.7299 21.1947C14.9997 21.3485 14.1531 21.1931 13.1989 20.5639L13.199 20.5638L13.187 20.5562C12.8319 20.3315 12.4203 20.2122 12 20.2122C11.5797 20.2122 11.1681 20.3315 10.813 20.5562L10.8129 20.5561L10.8011 20.5639C9.84687 21.1931 9.00028 21.3485 8.27007 21.1947C7.53423 21.0397 6.79508 20.5451 6.11324 19.6377C4.22554 16.7862 3.75 14.4327 3.75 11.028Z" fill="#303234"/>
</svg>
