<svg width="24" height="24" viewBox="0 0 24 24" fill="none" xmlns="http://www.w3.org/2000/svg">
<rect width="24" height="24" rx="5" fill="url(#paint0_linear_22_656)"/>
<path d="M20.7985 13.5006C20.9925 13.5006 21.1584 13.4474 21.2963 13.3409C21.4366 13.2344 21.5067 13.0989 21.5067 12.9346V12.6741L20.8125 12.7193C20.6513 12.7308 20.5262 12.7725 20.4374 12.8443C20.3486 12.9137 20.3042 13.004 20.3042 13.1152C20.3042 13.2332 20.3486 13.327 20.4374 13.3964C20.5285 13.4659 20.6489 13.5006 20.7985 13.5006ZM20.3568 14.348C19.9968 14.348 19.693 14.2403 19.4452 14.025C19.1975 13.8097 19.0736 13.5342 19.0736 13.1985C19.0736 12.8466 19.2057 12.5723 19.4698 12.3755C19.7339 12.1787 20.1149 12.0652 20.6127 12.0351L21.5067 11.9831V11.7678C21.5067 11.6196 21.4576 11.505 21.3594 11.424C21.2613 11.3406 21.1292 11.2989 20.9633 11.2989C20.7997 11.2989 20.6653 11.3371 20.5601 11.4135C20.4573 11.4876 20.3965 11.5849 20.3778 11.7052H19.2594C19.2781 11.314 19.4452 11.0026 19.7608 10.7711C20.0763 10.5373 20.4982 10.4203 21.0264 10.4203C21.5359 10.4203 21.9461 10.5384 22.2569 10.7746C22.5678 11.0084 22.7232 11.3163 22.7232 11.6983V14.2924H21.5137V13.7541H21.4892C21.3887 13.9393 21.2344 14.0852 21.0264 14.1917C20.8184 14.2959 20.5952 14.348 20.3568 14.348Z" fill="white"/>
<path d="M19.0245 10.5108L17.7589 14.2926H16.325L15.0453 10.5108H16.3811L17.0472 13.2612H17.0717L17.7238 10.5108H19.0245Z" fill="white"/>
<path d="M12.3212 14.348C11.8467 14.348 11.4739 14.1755 11.2028 13.8305C10.934 13.4833 10.7996 13.004 10.7996 12.3928C10.7996 11.7886 10.9364 11.3151 11.2098 10.9725C11.4833 10.6276 11.8584 10.4551 12.3352 10.4551C12.6063 10.4551 12.8424 10.5211 13.0434 10.653C13.2467 10.785 13.3916 10.9598 13.4781 11.1774H13.5027V9.28131H14.7437V14.2924H13.5097V13.643H13.4851C13.4057 13.8491 13.2608 14.0181 13.0504 14.15C12.8424 14.282 12.5993 14.348 12.3212 14.348ZM13.3133 11.6844C13.1848 11.5061 13.0095 11.417 12.7875 11.417C12.5654 11.417 12.3901 11.505 12.2616 11.6809C12.1354 11.8569 12.0723 12.0977 12.0723 12.4033C12.0723 12.7089 12.1354 12.9496 12.2616 13.1256C12.3878 13.2992 12.5631 13.386 12.7875 13.386C13.0118 13.386 13.1871 13.2992 13.3133 13.1256C13.4419 12.9519 13.5062 12.7112 13.5062 12.4033C13.5062 12.1 13.4419 11.8604 13.3133 11.6844Z" fill="white"/>
<path d="M9.06782 14.2926V10.5108H10.3089V14.2926H9.06782ZM10.1406 10.0316C10.0191 10.1473 9.86833 10.2052 9.68836 10.2052C9.50839 10.2052 9.35647 10.1473 9.2326 10.0316C9.11106 9.91582 9.05029 9.77228 9.05029 9.60096C9.05029 9.43195 9.11106 9.28957 9.2326 9.17382C9.35647 9.05806 9.50839 9.00018 9.68836 9.00018C9.86833 9.00018 10.0191 9.05806 10.1406 9.17382C10.2622 9.28726 10.3229 9.42964 10.3229 9.60096C10.3229 9.77228 10.2622 9.91582 10.1406 10.0316Z" fill="white"/>
<path d="M6.23151 14.2924V10.5106H7.44104V11.226H7.46558C7.60581 10.7121 7.90498 10.4551 8.36308 10.4551C8.48696 10.4551 8.59213 10.4713 8.67861 10.5037V11.5524C8.56175 11.5061 8.42969 11.483 8.28245 11.483C8.02067 11.483 7.82084 11.5536 7.68294 11.6948C7.54504 11.8361 7.47609 12.0386 7.47609 12.3025V14.2924H6.23151Z" fill="white"/>
<path d="M4.67837 14.2925H3.39522V10.3093H1.99988V9.28143H6.07371V10.3093H4.67837V14.2925Z" fill="white"/>
<defs>
<linearGradient id="paint0_linear_22_656" x1="2.14237e-07" y1="2.46575" x2="25.1655" y2="4.03877" gradientUnits="userSpaceOnUse">
<stop stop-color="#F40C43"/>
<stop offset="0.50872" stop-color="#FD6E55"/>
<stop offset="1" stop-color="#FFAF60"/>
</linearGradient>
</defs>
</svg>
