<svg width="24" height="24" viewBox="0 0 24 24" fill="none" xmlns="http://www.w3.org/2000/svg">
<path fill-rule="evenodd" clip-rule="evenodd" d="M8.07895 2.5C7.54502 2.5 7.03297 2.7121 6.65543 3.08964C6.27789 3.46718 6.06579 3.97924 6.06579 4.51316C6.06579 5.04708 6.27789 5.55913 6.65543 5.93668C7.03297 6.31422 7.54502 6.52632 8.07895 6.52632H11.1974V5.61842C11.1974 4.79136 10.8688 3.99818 10.284 3.41336C9.69919 2.82855 8.906 2.5 8.07895 2.5ZM11.9474 3.09547C11.774 2.82967 11.5725 2.58051 11.3447 2.3527C10.4785 1.48658 9.30383 1 8.07895 1C7.1472 1 6.25361 1.37014 5.59477 2.02898C4.93592 2.68782 4.56579 3.58141 4.56579 4.51316C4.56579 5.23819 4.78991 5.94012 5.19978 6.52632H2C1.58579 6.52632 1.25 6.8621 1.25 7.27632V11.6974C1.25 12.1116 1.58579 12.4474 2 12.4474H2.35526V20.5395C2.35526 21.3247 2.66718 22.0777 3.22238 22.6329C3.77759 23.1881 4.53061 23.5 5.31579 23.5H18.5789C19.3641 23.5 20.1171 23.1881 20.6724 22.6329C21.2276 22.0777 21.5395 21.3247 21.5395 20.5395V12.4474H21.8947C22.309 12.4474 22.6447 12.1116 22.6447 11.6974V7.27632C22.6447 6.8621 22.309 6.52632 21.8947 6.52632H18.6949C18.8407 6.31786 18.9637 6.0937 19.0615 5.85758C19.2381 5.43135 19.3289 4.97451 19.3289 4.51316C19.3289 3.58141 18.9588 2.68783 18.3 2.02898C17.6411 1.37014 16.7475 1 15.8158 1C14.5909 1 13.4162 1.48658 12.5501 2.3527C12.3223 2.58051 12.1207 2.82967 11.9474 3.09547ZM2.75 8.02632V10.9474H21.1447V8.02632H2.75ZM20.0395 12.4474H12.6974V22H18.5789C18.9663 22 19.3378 21.8461 19.6117 21.5722C19.8856 21.2983 20.0395 20.9268 20.0395 20.5395V12.4474ZM11.1974 22V12.4474H3.85526V20.5395C3.85526 20.9268 4.00914 21.2983 4.28304 21.5722C4.55694 21.8461 4.92843 22 5.31579 22H11.1974ZM15.8158 6.52632C16.0802 6.52632 16.3419 6.47424 16.5862 6.37307C16.8304 6.2719 17.0524 6.12361 17.2393 5.93668C17.4262 5.74974 17.5745 5.52781 17.6757 5.28356C17.7769 5.03931 17.8289 4.77753 17.8289 4.51316C17.8289 3.97924 17.6168 3.46718 17.2393 3.08964C16.8618 2.7121 16.3497 2.5 15.8158 2.5C14.9887 2.5 14.1955 2.82855 13.6107 3.41336C13.0259 3.99818 12.6974 4.79136 12.6974 5.61842V6.52632H15.8158Z" fill="#303234"/>
</svg>
