<svg width="24" height="24" viewBox="0 0 24 24" fill="none" xmlns="http://www.w3.org/2000/svg">
<path fill-rule="evenodd" clip-rule="evenodd" d="M12.75 2C12.75 1.58579 12.4142 1.25 12 1.25C11.5858 1.25 11.25 1.58579 11.25 2V3.93195L9.08269 2.48707C8.73805 2.25731 8.27239 2.35044 8.04263 2.69509C7.81286 3.03973 7.906 3.50538 8.25064 3.73515L11.25 5.73472V8.32501C9.78065 8.62328 8.62328 9.78065 8.32501 11.25H5.73472L3.73515 8.25064C3.50538 7.906 3.03973 7.81286 2.69509 8.04263C2.35044 8.27239 2.25731 8.73805 2.48707 9.08269L3.93195 11.25H2C1.58579 11.25 1.25 11.5858 1.25 12C1.25 12.4142 1.58579 12.75 2 12.75H3.93195L2.48707 14.9173C2.25731 15.262 2.35044 15.7276 2.69509 15.9574C3.03973 16.1871 3.50538 16.094 3.73515 15.7494L5.73472 12.75H8.32501C8.62328 14.2193 9.78065 15.3767 11.25 15.675V18.2653L8.25064 20.2649C7.906 20.4946 7.81286 20.9603 8.04263 21.3049C8.27239 21.6496 8.73805 21.7427 9.08269 21.5129L11.25 20.0681V22C11.25 22.4142 11.5858 22.75 12 22.75C12.4142 22.75 12.75 22.4142 12.75 22V20.0681L14.9173 21.5129C15.262 21.7427 15.7276 21.6496 15.9574 21.3049C16.1871 20.9603 16.094 20.4946 15.7494 20.2649L12.75 18.2653V15.675C14.2193 15.3767 15.3767 14.2193 15.675 12.75H18.2653L20.2649 15.7494C20.4946 16.094 20.9603 16.1871 21.3049 15.9574C21.6496 15.7276 21.7427 15.262 21.5129 14.9173L20.0681 12.75H22C22.4142 12.75 22.75 12.4142 22.75 12C22.75 11.5858 22.4142 11.25 22 11.25H20.0681L21.5129 9.08269C21.7427 8.73805 21.6496 8.27239 21.3049 8.04263C20.9603 7.81286 20.4946 7.906 20.2649 8.25064L18.2653 11.25H15.675C15.3767 9.78065 14.2193 8.62328 12.75 8.32501V5.73472L15.7494 3.73515C16.094 3.50538 16.1871 3.03973 15.9574 2.69509C15.7276 2.35044 15.262 2.25731 14.9173 2.48707L12.75 3.93195V2ZM9.75 12C9.75 10.7574 10.7574 9.75 12 9.75C13.2426 9.75 14.25 10.7574 14.25 12C14.25 13.2426 13.2426 14.25 12 14.25C10.7574 14.25 9.75 13.2426 9.75 12Z" fill="#303234"/>
</svg>
