<svg width="24" height="24" viewBox="0 0 24 24" fill="none" xmlns="http://www.w3.org/2000/svg">
<path fill-rule="evenodd" clip-rule="evenodd" d="M9.99996 2C9.27062 2 8.57114 2.28973 8.05542 2.80546C7.53969 3.32118 7.24996 4.02065 7.24996 4.75V6H4C2.48122 6 1.25 7.23122 1.25 8.75V13.7358C1.24984 13.7448 1.24984 13.7538 1.25 13.7628V18.75C1.25 20.2688 2.48122 21.5 4 21.5H20C21.5188 21.5 22.75 20.2688 22.75 18.75V13.7573C22.7501 13.752 22.7501 13.7467 22.75 13.7413V8.75C22.75 7.23122 21.5188 6 20 6H16.75V4.75C16.75 4.02065 16.4602 3.32118 15.9445 2.80546C15.4288 2.28973 14.7293 2 14 2H9.99996ZM15.25 6V4.75C15.25 4.41848 15.1183 4.10054 14.8838 3.86612C14.6494 3.6317 14.3315 3.5 14 3.5H9.99996C9.66844 3.5 9.3505 3.6317 9.11608 3.86612C8.88166 4.10054 8.74996 4.41848 8.74996 4.75V6H15.25ZM21.25 13.3409V8.75C21.25 8.05964 20.6904 7.5 20 7.5H16H7.99996H4C3.30964 7.5 2.75 8.05964 2.75 8.75V13.3409C5.51929 15.0791 8.72498 16.0033 12 16.0033C15.275 16.0033 18.4807 15.0791 21.25 13.3409ZM21.25 15.085C18.4316 16.6668 15.2471 17.5033 12 17.5033C8.75284 17.5033 5.56843 16.6669 2.75 15.0851V18.75C2.75 19.4404 3.30964 20 4 20H20C20.6904 20 21.25 19.4404 21.25 18.75V15.085ZM12 12C11.5857 12 11.25 12.3358 11.25 12.75C11.25 13.1642 11.5857 13.5 12 13.5H12.01C12.4242 13.5 12.76 13.1642 12.76 12.75C12.76 12.3358 12.4242 12 12.01 12H12Z" fill="#303234"/>
</svg>
