<svg width="24" height="24" viewBox="0 0 24 24" fill="none" xmlns="http://www.w3.org/2000/svg">
<path fill-rule="evenodd" clip-rule="evenodd" d="M16.75 1.25C16.3358 1.25 16 1.58579 16 2C16 2.41421 16.3358 2.75 16.75 2.75H18.6893L15.9728 5.46654C14.6681 3.81208 12.6456 2.75 10.375 2.75C6.43997 2.75 3.25 5.93997 3.25 9.875C3.25 13.5571 6.04302 16.5868 9.62599 16.9611C9.62533 16.974 9.625 16.987 9.625 17V19.25H7.75C7.33579 19.25 7 19.5858 7 20C7 20.4142 7.33579 20.75 7.75 20.75H9.625V23C9.625 23.4142 9.96079 23.75 10.375 23.75C10.7892 23.75 11.125 23.4142 11.125 23V20.75H13C13.4142 20.75 13.75 20.4142 13.75 20C13.75 19.5858 13.4142 19.25 13 19.25H11.125V17C11.125 16.987 11.1247 16.974 11.124 16.9611C14.707 16.5868 17.5 13.5571 17.5 9.875C17.5 8.76221 17.2449 7.70901 16.79 6.77068L19.75 3.81066V5.75C19.75 6.16421 20.0858 6.5 20.5 6.5C20.9142 6.5 21.25 6.16421 21.25 5.75V2C21.25 1.58579 20.9142 1.25 20.5 1.25H16.75ZM4.75 9.875C4.75 6.7684 7.2684 4.25 10.375 4.25C13.4816 4.25 16 6.7684 16 9.875C16 12.9816 13.4816 15.5 10.375 15.5C7.2684 15.5 4.75 12.9816 4.75 9.875Z" fill="#303234"/>
</svg>
