<svg width="31" height="32" viewBox="0 0 31 32" fill="none" xmlns="http://www.w3.org/2000/svg">
<g filter="url(#filter0_d_22_538)">
<path fill-rule="evenodd" clip-rule="evenodd" d="M13.8384 3.45234C13.6365 3.66071 13.3625 3.77778 13.0769 3.77778C12.7913 3.77778 12.5174 3.66071 12.3154 3.45234C12.1135 3.24397 12 2.96135 12 2.66667C12 2.37198 12.1135 2.08937 12.3154 1.88099C12.5174 1.67262 12.7913 1.55556 13.0769 1.55556C13.3625 1.55556 13.6365 1.67262 13.8384 1.88099C14.0404 2.08937 14.1538 2.37198 14.1538 2.66667C14.1538 2.96135 14.0404 3.24397 13.8384 3.45234ZM25.6846 2.89679C25.4826 3.10516 25.2087 3.22222 24.9231 3.22222C24.6375 3.22222 24.3635 3.10516 24.1616 2.89679C23.9596 2.68841 23.8462 2.4058 23.8462 2.11111C23.8462 1.81643 23.9596 1.53381 24.1616 1.32544C24.3635 1.11706 24.6375 1 24.9231 1C25.2087 1 25.4826 1.11706 25.6846 1.32544C25.8865 1.53381 26 1.81643 26 2.11111C26 2.4058 25.8865 2.68841 25.6846 2.89679ZM25.6846 15.6746C25.4826 15.8829 25.2087 16 24.9231 16C24.6375 16 24.3635 15.8829 24.1616 15.6746C23.9596 15.4662 23.8462 15.1836 23.8462 14.8889C23.8462 14.5942 23.9596 14.3116 24.1616 14.1032C24.3635 13.8948 24.6375 13.7778 24.9231 13.7778C25.2087 13.7778 25.4826 13.8948 25.6846 14.1032C25.8865 14.3116 26 14.5942 26 14.8889C26 15.1836 25.8865 15.4662 25.6846 15.6746ZM24.0692 20.6746C23.8672 20.8829 23.5933 21 23.3077 21C23.0221 21 22.7482 20.8829 22.5462 20.6746C22.3442 20.4662 22.2308 20.1836 22.2308 19.8889C22.2308 19.5942 22.3442 19.3116 22.5462 19.1032C22.7482 18.8948 23.0221 18.7778 23.3077 18.7778C23.5933 18.7778 23.8672 18.8948 24.0692 19.1032C24.2712 19.3116 24.3846 19.5942 24.3846 19.8889C24.3846 20.1836 24.2712 20.4662 24.0692 20.6746ZM16.8908 3.47719C17.1796 3.1802 17.6544 3.17351 17.9514 3.46225C18.6534 4.14472 19.0229 4.97541 18.8849 5.91459C18.7548 6.79967 18.1922 7.63695 17.38 8.42664L14.5228 11.2044C14.2258 11.4932 13.751 11.4865 13.4623 11.1895C13.1735 10.8925 13.1802 10.4177 13.4772 10.1289L16.3343 7.35114C17.0459 6.65934 17.3404 6.10774 17.4008 5.69652C17.4533 5.3394 17.3467 4.96639 16.9058 4.53775C16.6088 4.24901 16.6021 3.77418 16.8908 3.47719ZM23.1429 10.5833C22.4519 10.5833 21.6768 10.9158 20.8085 11.76L17.9514 14.5377C17.6544 14.8265 17.1796 14.8198 16.8908 14.5228C16.6021 14.2258 16.6088 13.751 16.9058 13.4623L19.7629 10.6845C20.7994 9.67681 21.9291 9.08333 23.1429 9.08333C24.3566 9.08333 25.4864 9.67681 26.5228 10.6845C26.8198 10.9732 26.8265 11.448 26.5377 11.745C26.249 12.042 25.7742 12.0487 25.4772 11.76C24.6089 10.9158 23.8339 10.5833 23.1429 10.5833ZM9.6965 8.26749C9.95124 8.21152 10.2168 8.2919 10.3977 8.47977L19.5402 17.9735C19.7198 18.1599 19.7905 18.4257 19.7274 18.6767C19.6642 18.9276 19.4762 19.1283 19.2298 19.2076L5.22982 23.7139C4.95916 23.8011 4.66251 23.7276 4.46374 23.5243C4.26497 23.321 4.19826 23.0228 4.29146 22.7542L9.1489 8.75417C9.23439 8.50776 9.44176 8.32347 9.6965 8.26749ZM10.1653 10.4009L6.20142 21.8254L17.626 18.1481L10.1653 10.4009Z" fill="#303234"/>
</g>
<defs>
<filter id="filter0_d_22_538" x="0" y="0" width="32" height="32" filterUnits="userSpaceOnUse" color-interpolation-filters="sRGB">
<feFlood flood-opacity="0" result="BackgroundImageFix"/>
<feColorMatrix in="SourceAlpha" type="matrix" values="0 0 0 0 0 0 0 0 0 0 0 0 0 0 0 0 0 0 127 0" result="hardAlpha"/>
<feOffset dy="4"/>
<feGaussianBlur stdDeviation="2"/>
<feComposite in2="hardAlpha" operator="out"/>
<feColorMatrix type="matrix" values="0 0 0 0 0 0 0 0 0 0 0 0 0 0 0 0 0 0 0.25 0"/>
<feBlend mode="normal" in2="BackgroundImageFix" result="effect1_dropShadow_22_538"/>
<feBlend mode="normal" in="SourceGraphic" in2="effect1_dropShadow_22_538" result="shape"/>
</filter>
</defs>
</svg>
