<svg width="24" height="24" viewBox="0 0 24 24" fill="none" xmlns="http://www.w3.org/2000/svg">
<path d="M22.3774 21.7647H16.566C18.8454 20.5588 20.6016 18.5676 21.5036 16.1663C22.4056 13.765 22.3912 11.1194 21.4632 8.72785C20.5351 6.33633 18.7574 4.36405 16.4651 3.18257C14.1727 2.00109 11.5239 1.692 9.01771 2.31352C6.51152 2.93504 4.32098 4.44426 2.85879 6.55685C1.39659 8.66944 0.763695 11.2395 1.07933 13.7829C1.39497 16.3263 2.63735 18.6674 4.57241 20.3651C6.50747 22.0629 9.00161 23 11.5849 23H22.3774C22.5425 23 22.7009 22.9349 22.8176 22.8191C22.9344 22.7033 23 22.5462 23 22.3824C23 22.2185 22.9344 22.0614 22.8176 21.9456C22.7009 21.8298 22.5425 21.7647 22.3774 21.7647ZM11.5849 3.23531C13.358 3.232 15.0951 3.73207 16.591 4.67648C15.43 5.17355 14.3127 5.76544 13.2505 6.44604C11.6061 5.39559 9.83266 4.55872 7.9736 3.9559C9.11693 3.47933 10.3448 3.23433 11.5849 3.23531ZM6.417 4.78663C8.43041 5.31828 10.3559 6.13548 12.1339 7.21295C11.3005 7.81746 10.5087 8.47637 9.7637 9.1853C7.94341 8.2069 5.97182 7.5355 3.92955 7.19854C4.60081 6.24856 5.4443 5.43069 6.417 4.78663ZM3.23946 8.34325C5.19686 8.61089 7.0942 9.20647 8.85049 10.1046C8.17079 10.8275 7.53888 11.5933 6.9587 12.3971C5.5024 11.7292 3.9449 11.3045 2.34908 11.1402C2.49341 10.1667 2.79401 9.2224 3.23946 8.34325ZM4.02087 17.9281C2.8648 16.3507 2.24312 14.4502 2.24531 12.5V12.3713C3.62825 12.5164 4.97981 12.8752 6.25096 13.4347C5.34278 14.8463 4.59487 16.3533 4.02087 17.9281ZM4.95483 19.0234C5.95635 15.9815 7.62221 13.1964 9.83358 10.8666C12.045 8.53689 14.7474 6.71991 17.748 5.54531C18.5237 6.223 19.1815 7.02294 19.6948 7.91295C16.7405 8.89344 14.0767 10.5842 11.9413 12.8343C9.80592 15.0844 8.26526 17.8239 7.45681 20.8084C6.53079 20.3539 5.68682 19.7508 4.95898 19.0234H4.95483ZM11.4926 21.7637C10.5132 21.7554 9.54139 21.5938 8.61285 21.285C9.35559 18.4384 10.81 15.8236 12.8415 13.6824C14.8731 11.5412 17.4161 9.9428 20.2355 9.03501C20.604 9.93505 20.8261 10.8875 20.8934 11.8566C18.6373 12.6332 16.6043 13.9401 14.9679 15.6655C13.3316 17.3908 12.1406 19.4835 11.4967 21.7647L11.4926 21.7637ZM20.8965 13.165C20.7395 15.2893 19.8505 17.2953 18.3789 18.8464C16.9073 20.3975 14.9426 21.3992 12.8146 21.6834C13.4284 19.7509 14.4744 17.9811 15.8746 16.506C17.2748 15.0309 18.993 13.8888 20.9007 13.165H20.8965Z" fill="#303234"/>
</svg>
