<svg width="24" height="24" viewBox="0 0 24 24" fill="none" xmlns="http://www.w3.org/2000/svg">
<path fill-rule="evenodd" clip-rule="evenodd" d="M4.76467 1.17237C5.03823 1.05858 5.33157 1 5.62785 1C5.92412 1 6.21747 1.05858 6.49102 1.17237C6.76416 1.28599 7.01218 1.45241 7.22086 1.6621C7.22117 1.66241 7.22148 1.66272 7.22179 1.66303L8.28381 2.72505C8.35328 2.79494 8.43587 2.85039 8.52685 2.88824C8.61783 2.92608 8.71539 2.94556 8.81392 2.94556C8.91246 2.94556 9.01002 2.92608 9.101 2.88824C9.19197 2.85039 9.27457 2.79494 9.34403 2.72505L9.34562 2.72346L10.4061 1.66303C10.4063 1.66275 10.4066 1.66247 10.4069 1.66219C10.6156 1.45246 10.8636 1.286 11.1368 1.17237C11.4104 1.05858 11.7037 1 12 1C12.2963 1 12.5896 1.05858 12.8632 1.17237C13.1363 1.28597 13.3843 1.45236 13.5929 1.662C13.5933 1.66234 13.5936 1.66268 13.5939 1.66303L14.656 2.72505C14.7254 2.79494 14.808 2.85039 14.899 2.88824C14.99 2.92608 15.0875 2.94556 15.1861 2.94556C15.2846 2.94556 15.3822 2.92608 15.4731 2.88824C15.5641 2.85039 15.6467 2.79494 15.7162 2.72505L15.7178 2.72346L16.7782 1.66303C16.7786 1.66268 16.7789 1.66234 16.7792 1.662C16.9879 1.45236 17.2359 1.28597 17.509 1.17237C17.7825 1.05858 18.0759 1 18.3722 1C18.6684 1 18.9618 1.05858 19.2353 1.17237C19.5085 1.286 19.7566 1.45246 19.9653 1.66219C19.9655 1.66247 19.9658 1.66275 19.9661 1.66303L22.087 3.7839C22.0872 3.78415 22.0875 3.78439 22.0877 3.78464C22.2975 3.99335 22.464 4.24144 22.5776 4.51467C22.6914 4.78822 22.75 5.08157 22.75 5.37785C22.75 5.67412 22.6914 5.96747 22.5776 6.24102C22.464 6.51423 22.2975 6.7623 22.0878 6.97101C22.0875 6.97127 22.0872 6.97153 22.087 6.97179L21.0265 8.03223L21.0249 8.03381C20.9551 8.10328 20.8996 8.18587 20.8618 8.27685C20.8239 8.36783 20.8044 8.46539 20.8044 8.56392C20.8044 8.66246 20.8239 8.76002 20.8618 8.851C20.8996 8.94197 20.9551 9.02457 21.0249 9.09403L21.0265 9.09562L22.087 10.1561C22.0872 10.1563 22.0867 10.1558 22.087 10.1561C22.2968 10.3648 22.464 10.6136 22.5776 10.8868C22.6914 11.1604 22.75 11.4537 22.75 11.75C22.75 12.0463 22.6914 12.3396 22.5776 12.6132C22.464 12.8863 22.2976 13.1344 22.0879 13.3431C22.0876 13.3434 22.0873 13.3436 22.087 13.3439L21.0265 14.4044L21.0249 14.406C20.9551 14.4754 20.8996 14.558 20.8618 14.649C20.8239 14.74 20.8044 14.8375 20.8044 14.9361C20.8044 15.0346 20.8239 15.1322 20.8618 15.2231C20.8996 15.3141 20.9551 15.3967 21.0249 15.4662L21.0265 15.4678L22.087 16.5282C22.0873 16.5285 22.0876 16.5288 22.0879 16.5291C22.2976 16.7378 22.464 16.9858 22.5776 17.259C22.6914 17.5325 22.75 17.8259 22.75 18.1222C22.75 18.4184 22.6914 18.7118 22.5776 18.9853C22.464 19.2586 22.2975 19.5067 22.0877 19.7154C22.0874 19.7156 22.0879 19.7152 22.0877 19.7154L19.9661 21.837C19.9659 21.8372 19.9663 21.8367 19.9661 21.837C19.7574 22.0468 19.5086 22.214 19.2353 22.3276C18.9618 22.4414 18.6684 22.5 18.3722 22.5C18.0759 22.5 17.7825 22.4414 17.509 22.3276C17.2358 22.214 16.9878 22.0476 16.7791 21.8379C16.7788 21.8376 16.7785 21.8373 16.7782 21.837L15.7178 20.7765L15.7162 20.7749C15.6467 20.7051 15.5641 20.6496 15.4731 20.6118C15.3822 20.5739 15.2846 20.5544 15.1861 20.5544C15.0875 20.5544 14.99 20.5739 14.899 20.6118C14.808 20.6496 14.7254 20.7051 14.656 20.7749L14.6544 20.7765L13.5939 21.837C13.5936 21.8373 13.5934 21.8376 13.5931 21.8379C13.3844 22.0476 13.1363 22.214 12.8632 22.3276C12.5896 22.4414 12.2963 22.5 12 22.5C11.7037 22.5 11.4104 22.4414 11.1368 22.3276C10.8636 22.214 10.6155 22.0475 10.4067 21.8377C10.4065 21.8374 10.407 21.8379 10.4067 21.8377L9.34562 20.7765L9.34403 20.7749C9.27457 20.7051 9.19197 20.6496 9.101 20.6118C9.01002 20.5739 8.91246 20.5544 8.81392 20.5544C8.71539 20.5544 8.61783 20.5739 8.52685 20.6118C8.43587 20.6496 8.35328 20.7051 8.28381 20.7749L8.28223 20.7765L7.22179 21.837C7.22153 21.8372 7.22127 21.8375 7.22101 21.8378C7.0123 22.0475 6.76423 22.214 6.49102 22.3276C6.21747 22.4414 5.92412 22.5 5.62785 22.5C5.33157 22.5 5.03822 22.4414 4.76467 22.3276C4.49144 22.214 4.24335 22.0475 4.03464 21.8377C4.03439 21.8375 4.03415 21.8372 4.0339 21.837L1.91303 19.7161C1.91275 19.7158 1.91247 19.7155 1.91219 19.7153C1.70246 19.5066 1.536 19.2585 1.42237 18.9853C1.30858 18.7118 1.25 18.4184 1.25 18.1222C1.25 17.8259 1.30858 17.5325 1.42237 17.259C1.53597 16.9859 1.70236 16.7379 1.912 16.5292C1.91234 16.5289 1.91268 16.5286 1.91303 16.5282L2.97346 15.4678L2.97505 15.4662C3.04494 15.3967 3.10039 15.3141 3.13824 15.2231C3.17608 15.1322 3.19556 15.0346 3.19556 14.9361C3.19556 14.8375 3.17608 14.74 3.13824 14.649C3.10039 14.558 3.04494 14.4754 2.97505 14.406L2.97346 14.4044L1.91303 13.3439C1.91268 13.3436 1.91234 13.3433 1.912 13.3429C1.70236 13.1343 1.53597 12.8863 1.42237 12.6132C1.30858 12.3396 1.25 12.0463 1.25 11.75C1.25 11.4537 1.30858 11.1604 1.42237 10.8868C1.536 10.6136 1.70246 10.3656 1.91219 10.1569C1.91247 10.1566 1.91275 10.1563 1.91303 10.1561L2.97346 9.09562L2.97505 9.09403C3.04494 9.02457 3.10039 8.94197 3.13824 8.851C3.17608 8.76002 3.19556 8.66246 3.19556 8.56392C3.19556 8.46539 3.17608 8.36783 3.13824 8.27685C3.10039 8.18587 3.04494 8.10328 2.97505 8.03381L2.97346 8.03223L1.91303 6.97179C1.91272 6.97148 1.91241 6.97117 1.9121 6.97086C1.70241 6.76218 1.53599 6.51416 1.42237 6.24102C1.30858 5.96747 1.25 5.67412 1.25 5.37785C1.25 5.08157 1.30858 4.78823 1.42237 4.51467C1.536 4.24151 1.70244 3.99347 1.91214 3.78478C1.91244 3.78449 1.91273 3.7842 1.91303 3.7839L4.0339 1.66303C4.0342 1.66273 4.03449 1.66244 4.03478 1.66214C4.24347 1.45244 4.49151 1.286 4.76467 1.17237ZM5.62785 2.5C5.52931 2.5 5.43175 2.51948 5.34077 2.55733C5.2498 2.59517 5.1672 2.65063 5.09773 2.72051L5.09615 2.7221L2.97051 4.84774C2.90063 4.9172 2.84517 4.9998 2.80733 5.09077C2.76948 5.18175 2.75 5.27931 2.75 5.37785C2.75 5.47638 2.76948 5.57394 2.80733 5.66492C2.84517 5.75589 2.90063 5.83849 2.97051 5.90796L2.9721 5.90954L4.03253 6.96998C4.03284 6.97029 4.03315 6.9706 4.03346 6.97091C4.24315 7.17958 4.40958 7.42761 4.5232 7.70075C4.63698 7.9743 4.69556 8.26765 4.69556 8.56392C4.69556 8.8602 4.63698 9.15354 4.5232 9.42709C4.40956 9.70028 4.2431 9.94834 4.03337 10.157C4.03309 10.1573 4.03281 10.1576 4.03253 10.1579L2.9721 11.2183L2.97051 11.2199C2.90063 11.2894 2.84517 11.372 2.80733 11.4629C2.76948 11.5539 2.75 11.6515 2.75 11.75C2.75 11.8485 2.76948 11.9461 2.80733 12.0371C2.84517 12.128 2.90063 12.2106 2.97051 12.2801L2.9721 12.2817L4.03253 13.3421C4.03288 13.3425 4.03322 13.3428 4.03356 13.3432C4.2432 13.5518 4.40959 13.7998 4.5232 14.0729C4.63698 14.3465 4.69556 14.6398 4.69556 14.9361C4.69556 15.2323 4.63698 15.5257 4.5232 15.7992C4.40959 16.0723 4.2432 16.3203 4.03356 16.529C4.03322 16.5293 4.03288 16.5297 4.03253 16.53L2.9721 17.5905L2.97051 17.592C2.90063 17.6615 2.84517 17.7441 2.80733 17.8351C2.76948 17.9261 2.75 18.0236 2.75 18.1222C2.75 18.2207 2.76948 18.3182 2.80733 18.4092C2.84517 18.5002 2.90063 18.5828 2.97051 18.6523L2.9721 18.6538L5.09774 20.7795C5.1672 20.8494 5.2498 20.9048 5.34077 20.9427C5.43175 20.9805 5.52931 21 5.62785 21C5.72638 21 5.82394 20.9805 5.91492 20.9427C6.0059 20.9048 6.08849 20.8494 6.15796 20.7795L6.15954 20.7779L7.21998 19.7175C7.22024 19.7172 7.2205 19.7169 7.22076 19.7167C7.42947 19.5069 7.67754 19.3405 7.95075 19.2268C8.2243 19.113 8.51765 19.0544 8.81392 19.0544C9.1102 19.0544 9.40354 19.113 9.67709 19.2268C9.95034 19.3405 10.1985 19.507 10.4072 19.7168C10.4074 19.717 10.407 19.7165 10.4072 19.7168L11.4699 20.7795C11.5394 20.8494 11.622 20.9048 11.7129 20.9427C11.8039 20.9805 11.9015 21 12 21C12.0985 21 12.1961 20.9805 12.2871 20.9427C12.378 20.9048 12.4606 20.8494 12.5301 20.7795L12.5317 20.7779L13.5921 19.7175C13.5924 19.7172 13.5927 19.7169 13.593 19.7166C13.8017 19.5069 14.0497 19.3404 14.3229 19.2268C14.5965 19.113 14.8898 19.0544 15.1861 19.0544C15.4823 19.0544 15.7757 19.113 16.0492 19.2268C16.3224 19.3404 16.5705 19.5069 16.7791 19.7166C16.7794 19.7169 16.7797 19.7172 16.78 19.7175L17.842 20.7795C17.9115 20.8494 17.9941 20.9048 18.0851 20.9427C18.1761 20.9805 18.2736 21 18.3722 21C18.4707 21 18.5682 20.9805 18.6592 20.9427C18.7502 20.9048 18.8328 20.8494 18.9023 20.7795L18.9038 20.7779L21.0279 18.6538L21.0295 18.6523C21.0994 18.5828 21.1548 18.5002 21.1927 18.4092C21.2305 18.3182 21.25 18.2207 21.25 18.1222C21.25 18.0236 21.2305 17.9261 21.1927 17.8351C21.1548 17.7441 21.0994 17.6615 21.0295 17.592L21.0279 17.5905L19.9675 16.53C19.9672 16.5297 19.9669 16.5294 19.9666 16.5291C19.7569 16.3205 19.5904 16.0724 19.4768 15.7992C19.363 15.5257 19.3044 15.2323 19.3044 14.9361C19.3044 14.6398 19.363 14.3465 19.4768 14.0729C19.5904 13.7997 19.7569 13.5517 19.9666 13.343C19.9669 13.3427 19.9672 13.3424 19.9675 13.3421L21.0279 12.2817L21.0295 12.2801C21.0994 12.2106 21.1548 12.128 21.1927 12.0371C21.2305 11.9461 21.25 11.8485 21.25 11.75C21.25 11.6515 21.2305 11.5539 21.1927 11.4629C21.1548 11.372 21.0994 11.2894 21.0295 11.2199L21.0279 11.2183L19.9675 10.1579C19.9672 10.1576 19.9677 10.1581 19.9675 10.1579C19.7577 9.94914 19.5905 9.70034 19.4768 9.42709C19.363 9.15354 19.3044 8.8602 19.3044 8.56392C19.3044 8.26765 19.363 7.9743 19.4768 7.70075C19.5905 7.42754 19.7569 7.17947 19.9667 6.97076C19.9669 6.9705 19.9672 6.97024 19.9675 6.96998L21.0279 5.90954L21.0295 5.90796C21.0994 5.83849 21.1548 5.7559 21.1927 5.66492C21.2305 5.57394 21.25 5.47638 21.25 5.37785C21.25 5.27931 21.2305 5.18175 21.1927 5.09077C21.1548 4.9998 21.0994 4.9172 21.0295 4.84773L21.0279 4.84615L18.9038 2.7221L18.9023 2.72051C18.8328 2.65063 18.7502 2.59517 18.6592 2.55733C18.5682 2.51948 18.4707 2.5 18.3722 2.5C18.2736 2.5 18.1761 2.51948 18.0851 2.55733C17.9941 2.59517 17.9115 2.65063 17.842 2.72051L17.8405 2.7221L16.78 3.78253C16.7797 3.78288 16.7793 3.78322 16.779 3.78356C16.5703 3.9932 16.3223 4.15959 16.0492 4.2732C15.7757 4.38698 15.4823 4.44556 15.1861 4.44556C14.8898 4.44556 14.5965 4.38698 14.3229 4.2732C14.0498 4.15959 13.8018 3.9932 13.5932 3.78356C13.5928 3.78322 13.5925 3.78288 13.5921 3.78253L12.5317 2.7221L12.5301 2.72051C12.4606 2.65063 12.378 2.59517 12.2871 2.55733C12.1961 2.51948 12.0985 2.5 12 2.5C11.9015 2.5 11.8039 2.51948 11.7129 2.55733C11.622 2.59517 11.5394 2.65063 11.4699 2.72051L11.4683 2.7221L10.4079 3.78253C10.4076 3.78281 10.4073 3.78309 10.407 3.78337C10.1983 3.9931 9.95028 4.15956 9.67709 4.2732C9.40354 4.38698 9.1102 4.44556 8.81392 4.44556C8.51765 4.44556 8.2243 4.38698 7.95075 4.2732C7.67761 4.15958 7.42958 3.99315 7.22091 3.78346C7.2206 3.78315 7.22029 3.78284 7.21998 3.78253L6.15954 2.7221L6.15796 2.72051C6.08849 2.65063 6.00589 2.59517 5.91492 2.55733C5.82394 2.51948 5.72638 2.5 5.62785 2.5Z" fill="#303234"/>
</svg>
