<svg width="24" height="24" viewBox="0 0 24 24" fill="none" xmlns="http://www.w3.org/2000/svg">
<path fill-rule="evenodd" clip-rule="evenodd" d="M8.7982 1.27746C8.8624 1.25957 8.93009 1.25 9 1.25H15C15.0699 1.25 15.1376 1.25957 15.2018 1.27746L15.2225 1.28278C15.2471 1.28917 15.2824 1.29847 15.3274 1.31062C15.4173 1.3349 15.5459 1.37064 15.7043 1.41734C16.0206 1.5106 16.4583 1.64839 16.9457 1.82709C17.8976 2.17614 19.1257 2.71178 19.9801 3.42383C21.585 4.76119 22.75 6.70366 22.75 8.5V18.5C22.75 18.9142 22.4142 19.25 22 19.25H19.25V22C19.25 22.4142 18.9142 22.75 18.5 22.75H5.5C5.08579 22.75 4.75 22.4142 4.75 22V19.25H2C1.58579 19.25 1.25 18.9142 1.25 18.5V8.5C1.25 6.70366 2.41503 4.76119 4.01986 3.42383C4.87433 2.71178 6.10235 2.17614 7.05431 1.82709C7.54167 1.64839 7.97943 1.5106 8.29569 1.41734C8.45408 1.37064 8.58268 1.3349 8.67259 1.31062C8.71756 1.29847 8.7529 1.28917 8.77751 1.28278L8.7982 1.27746ZM8.37531 2.96135C8.13852 3.03613 7.86397 3.12787 7.57069 3.23541C6.64765 3.57386 5.62567 4.03822 4.98014 4.57617C3.58497 5.73881 2.75 7.29634 2.75 8.5V17.75H4.75V8.5C4.75 8.08579 5.08579 7.75 5.5 7.75C5.91421 7.75 6.25 8.08579 6.25 8.5V21.25H17.75V8.5C17.75 8.08579 18.0858 7.75 18.5 7.75C18.9142 7.75 19.25 8.08579 19.25 8.5V17.75H21.25V8.5C21.25 7.29634 20.415 5.73881 19.0199 4.57617C18.3743 4.03822 17.3524 3.57386 16.4293 3.23541C16.136 3.12787 15.8615 3.03613 15.6247 2.96135C15.4565 3.59532 15.1234 4.17987 14.6517 4.65165C13.9484 5.35491 12.9946 5.75 12 5.75C11.0054 5.75 10.0516 5.35491 9.34835 4.65165C8.87656 4.17987 8.54347 3.59532 8.37531 2.96135ZM14.1213 2.75H9.87868C9.9895 3.06343 10.1695 3.35144 10.409 3.59099C10.831 4.01295 11.4033 4.25 12 4.25C12.5967 4.25 13.169 4.01295 13.591 3.59099C13.8305 3.35144 14.0105 3.06343 14.1213 2.75Z" fill="#303234"/>
</svg>
