<svg width="24" height="24" viewBox="0 0 24 24" fill="none" xmlns="http://www.w3.org/2000/svg">
<path fill-rule="evenodd" clip-rule="evenodd" d="M4.3937 6.16751C4.66787 5.90313 5.04536 5.75 5.44444 5.75H18.7778C19.1769 5.75 19.5543 5.90313 19.8285 6.16751C20.1018 6.431 20.25 6.78243 20.25 7.14286V8.30171C19.6722 8.41137 19.1358 8.69224 18.714 9.11404C18.1608 9.66727 17.85 10.4176 17.85 11.2V12.65H6.15V11.2C6.15 10.4176 5.8392 9.66727 5.28596 9.11404C4.91879 8.74686 4.46479 8.48647 3.97222 8.35286V7.14286C3.97222 6.78243 4.12045 6.431 4.3937 6.16751ZM2.71135 9.83482C2.84527 9.95947 3.02484 10.0357 3.22222 10.0357C3.41334 10.0357 3.58777 9.96423 3.72021 9.84653C3.90791 9.91868 4.08037 10.0298 4.22531 10.1747C4.49723 10.4466 4.65 10.8154 4.65 11.2V13.4C4.65 13.8142 4.98579 14.15 5.4 14.15H18.6C19.0142 14.15 19.35 13.8142 19.35 13.4V11.2C19.35 10.8154 19.5028 10.4466 19.7747 10.1747C19.962 9.98741 20.1952 9.85664 20.4479 9.79339C20.585 9.94236 20.7816 10.0357 21 10.0357C21.1623 10.0357 21.3125 9.98417 21.4353 9.89656C21.5785 9.96636 21.7105 10.0599 21.8253 10.1747C22.0972 10.4466 22.25 10.8154 22.25 11.2V17.05H1.75V16.7857V11.2C1.75 10.8154 1.90277 10.4466 2.1747 10.1747C2.32772 10.0217 2.51142 9.90638 2.71135 9.83482ZM2.47222 8.34117V7.14286C2.47222 6.36664 2.79225 5.62798 3.35249 5.08774C3.91181 4.5484 4.66479 4.25 5.44444 4.25H18.7778C19.5574 4.25 20.3104 4.5484 20.8697 5.08774C21.43 5.62798 21.75 6.36664 21.75 7.14286V8.40715C22.1738 8.55133 22.5634 8.79148 22.886 9.11404C23.4392 9.66727 23.75 10.4176 23.75 11.2V20C23.75 20.4142 23.4142 20.75 23 20.75C22.5858 20.75 22.25 20.4142 22.25 20V18.55H1.75V20C1.75 20.4142 1.41421 20.75 1 20.75C0.585786 20.75 0.25 20.4142 0.25 20V17.8V16.7857V11.2C0.25 10.4176 0.560803 9.66727 1.11403 9.11404C1.49223 8.73584 1.96253 8.47094 2.47222 8.34117Z" fill="#303234"/>
</svg>
