<svg width="24" height="24" viewBox="0 0 24 24" fill="none" xmlns="http://www.w3.org/2000/svg">
<path fill-rule="evenodd" clip-rule="evenodd" d="M12 2.75C6.89137 2.75 2.75 6.89137 2.75 12C2.75 17.1086 6.89137 21.25 12 21.25C17.1086 21.25 21.25 17.1086 21.25 12C21.25 6.89137 17.1086 2.75 12 2.75ZM1.25 12C1.25 6.06294 6.06294 1.25 12 1.25C17.9371 1.25 22.75 6.06294 22.75 12C22.75 17.9371 17.9371 22.75 12 22.75C6.06294 22.75 1.25 17.9371 1.25 12ZM6.80317 11.25H9.35352C9.47933 10.8052 9.71427 10.4062 10.0276 10.0837L8.75224 7.87485C7.7184 8.68992 6.99837 9.88531 6.80317 11.25ZM10.0507 7.1238L11.3263 9.33313C11.5419 9.27884 11.7676 9.25 12 9.25C12.2324 9.25 12.4581 9.27884 12.6737 9.33313L13.9493 7.1238C13.3466 6.88265 12.6888 6.75 12 6.75C11.3112 6.75 10.6534 6.88265 10.0507 7.1238ZM15.2478 7.87485L13.9724 10.0837C14.2857 10.4062 14.5207 10.8052 14.6465 11.25H17.1968C17.0016 9.88531 16.2816 8.68992 15.2478 7.87485ZM17.1968 12.75H14.6465C14.5207 13.1948 14.2857 13.5938 13.9724 13.9163L15.2478 16.1251C16.2816 15.3101 17.0016 14.1147 17.1968 12.75ZM13.9493 16.8762L12.6737 14.6669C12.4581 14.7212 12.2324 14.75 12 14.75C11.7676 14.75 11.5419 14.7212 11.3263 14.6669L10.0507 16.8762C10.6534 17.1173 11.3112 17.25 12 17.25C12.6888 17.25 13.3466 17.1173 13.9493 16.8762ZM8.75224 16.1251L10.0276 13.9163C9.71427 13.5938 9.47933 13.1948 9.35352 12.75H6.80317C6.99837 14.1147 7.7184 15.3101 8.75224 16.1251ZM11.3887 13.0906C11.3842 13.0878 11.3796 13.0851 11.375 13.0825C11.3707 13.08 11.3663 13.0775 11.3619 13.0751C10.9955 12.8572 10.75 12.4573 10.75 12C10.75 11.5427 10.9955 11.1428 11.3619 10.9249C11.3663 10.9225 11.3707 10.92 11.375 10.9175C11.3796 10.9149 11.3842 10.9122 11.3887 10.9094C11.5694 10.8079 11.778 10.75 12 10.75C12.222 10.75 12.4306 10.8079 12.6113 10.9094C12.6158 10.9122 12.6204 10.9149 12.625 10.9175C12.6293 10.92 12.6337 10.9225 12.6381 10.9249C13.0045 11.1428 13.25 11.5427 13.25 12C13.25 12.4573 13.0045 12.8572 12.6381 13.0751C12.6337 13.0775 12.6293 13.08 12.625 13.0825C12.6204 13.0851 12.6158 13.0878 12.6113 13.0906C12.4306 13.1921 12.222 13.25 12 13.25C11.778 13.25 11.5694 13.1921 11.3887 13.0906ZM5.25 12C5.25 8.27208 8.27208 5.25 12 5.25C15.7279 5.25 18.75 8.27208 18.75 12C18.75 15.7279 15.7279 18.75 12 18.75C8.27208 18.75 5.25 15.7279 5.25 12Z" fill="#303234"/>
</svg>
