<svg width="24" height="24" viewBox="0 0 24 24" fill="none" xmlns="http://www.w3.org/2000/svg">
<g clip-path="url(#clip0_22_564)">
<path fill-rule="evenodd" clip-rule="evenodd" d="M12 0.25C12.4142 0.25 12.75 0.585786 12.75 1V3.44444C12.75 3.85866 12.4142 4.19444 12 4.19444C11.5858 4.19444 11.25 3.85866 11.25 3.44444V1C11.25 0.585786 11.5858 0.25 12 0.25ZM3.69145 3.69145C3.98434 3.39855 4.45921 3.39855 4.75211 3.69145L6.48033 5.41967C6.77322 5.71256 6.77322 6.18744 6.48033 6.48033C6.18744 6.77322 5.71256 6.77322 5.41967 6.48033L3.69145 4.75211C3.39855 4.45921 3.39855 3.98434 3.69145 3.69145ZM20.3086 3.69145C20.6014 3.98434 20.6014 4.45921 20.3086 4.75211L18.5803 6.48033C18.2874 6.77322 17.8126 6.77322 17.5197 6.48033C17.2268 6.18744 17.2268 5.71256 17.5197 5.41967L19.2479 3.69145C19.5408 3.39855 20.0157 3.39855 20.3086 3.69145ZM12 7.86111C10.9023 7.86111 9.84956 8.29717 9.07336 9.07336C8.29717 9.84956 7.86111 10.9023 7.86111 12C7.86111 13.0977 8.29717 14.1504 9.07336 14.9266C9.84956 15.7028 10.9023 16.1389 12 16.1389C13.0977 16.1389 14.1504 15.7028 14.9266 14.9266C15.7028 14.1504 16.1389 13.0977 16.1389 12C16.1389 10.9023 15.7028 9.84956 14.9266 9.07336C14.1504 8.29717 13.0977 7.86111 12 7.86111ZM8.0127 8.0127C9.0702 6.95521 10.5045 6.36111 12 6.36111C13.4955 6.36111 14.9298 6.95521 15.9873 8.0127C17.0448 9.0702 17.6389 10.5045 17.6389 12C17.6389 13.4955 17.0448 14.9298 15.9873 15.9873C14.9298 17.0448 13.4955 17.6389 12 17.6389C10.5045 17.6389 9.0702 17.0448 8.0127 15.9873C6.95521 14.9298 6.36111 13.4955 6.36111 12C6.36111 10.5045 6.95521 9.0702 8.0127 8.0127ZM0.25 12C0.25 11.5858 0.585786 11.25 1 11.25H3.44444C3.85866 11.25 4.19444 11.5858 4.19444 12C4.19444 12.4142 3.85866 12.75 3.44444 12.75H1C0.585786 12.75 0.25 12.4142 0.25 12ZM19.8056 12C19.8056 11.5858 20.1413 11.25 20.5556 11.25H23C23.4142 11.25 23.75 11.5858 23.75 12C23.75 12.4142 23.4142 12.75 23 12.75H20.5556C20.1413 12.75 19.8056 12.4142 19.8056 12ZM6.48033 17.5197C6.77322 17.8126 6.77322 18.2874 6.48033 18.5803L4.75211 20.3086C4.45921 20.6014 3.98434 20.6014 3.69145 20.3086C3.39855 20.0157 3.39855 19.5408 3.69145 19.2479L5.41967 17.5197C5.71256 17.2268 6.18744 17.2268 6.48033 17.5197ZM17.5197 17.5197C17.8126 17.2268 18.2874 17.2268 18.5803 17.5197L20.3086 19.2479C20.6014 19.5408 20.6014 20.0157 20.3086 20.3086C20.0157 20.6014 19.5408 20.6014 19.2479 20.3086L17.5197 18.5803C17.2268 18.2874 17.2268 17.8126 17.5197 17.5197ZM12 19.8056C12.4142 19.8056 12.75 20.1413 12.75 20.5556V23C12.75 23.4142 12.4142 23.75 12 23.75C11.5858 23.75 11.25 23.4142 11.25 23V20.5556C11.25 20.1413 11.5858 19.8056 12 19.8056Z" fill="#303234"/>
</g>
<defs>
<clipPath id="clip0_22_564">
<rect width="24" height="24" fill="white"/>
</clipPath>
</defs>
</svg>
