<svg width="24" height="24" viewBox="0 0 24 24" fill="none" xmlns="http://www.w3.org/2000/svg">
<path fill-rule="evenodd" clip-rule="evenodd" d="M4 8.25757C4 4.19018 7.52437 1 11.7645 1C15.9806 1 19.4923 4.19385 19.5 8.24679C19.5041 9.3525 19.24 10.4427 18.7299 11.4354C18.2198 12.428 17.478 13.2955 16.5639 13.9759L16.5629 13.9767C16.019 14.3802 15.5839 14.8891 15.2862 15.463C14.9887 16.0365 14.8348 16.6619 14.8333 17.2935V18.2716C14.8333 18.6858 14.4975 19.0216 14.0833 19.0216H9.41607C9.00186 19.0216 8.66607 18.6858 8.66607 18.2716V17.2835C8.66607 16.0091 8.0352 14.7879 6.92955 13.963L6.92934 13.9629C5.15465 12.6379 4 10.5832 4 8.25757ZM19.5 8.24679C19.5 8.24705 19.5 8.24732 19.5 8.24759L18.75 8.24892L19.4999 8.24599C19.4999 8.24625 19.5 8.24652 19.5 8.24679ZM11.7645 2.5C8.24463 2.5 5.5 5.12279 5.5 8.25757C5.5 10.067 6.39548 11.6922 7.82652 12.7608C9.28278 13.8472 10.1661 15.5007 10.1661 17.2835V17.5216H13.3333V17.2927L13.3333 17.291C13.3352 16.4162 13.5485 15.5552 13.9547 14.7723C14.3606 13.9899 14.9477 13.3073 15.6687 12.7724C16.4047 12.2245 16.9937 11.5321 17.3957 10.7498C17.7977 9.96761 18.0033 9.1139 18 8.25185L18 8.25025C17.9944 5.12195 15.2546 2.5 11.7645 2.5ZM8.66665 21.75C8.66665 21.3358 9.00244 21 9.41665 21H14.0833C14.4975 21 14.8333 21.3358 14.8333 21.75C14.8333 22.1642 14.4975 22.5 14.0833 22.5H9.41665C9.00244 22.5 8.66665 22.1642 8.66665 21.75Z" fill="#303234"/>
</svg>
