<svg width="24" height="24" viewBox="0 0 24 24" fill="none" xmlns="http://www.w3.org/2000/svg">
<path fill-rule="evenodd" clip-rule="evenodd" d="M3.44444 4.75C2.99348 4.75 2.56196 4.92803 2.24456 5.24337C1.92733 5.55854 1.75 5.98497 1.75 6.42857V9.41027C2.31546 9.54618 2.83817 9.8345 3.25708 10.2507C3.85669 10.8464 4.19444 11.6554 4.19444 12.5C4.19444 13.3446 3.85669 14.1536 3.25708 14.7493C2.83817 15.1655 2.31546 15.4538 1.75 15.5897V18.5714C1.75 19.015 1.92733 19.4415 2.24456 19.7566C2.56196 20.072 2.99348 20.25 3.44444 20.25H14.9167V18.5714C14.9167 18.1572 15.2525 17.8214 15.6667 17.8214C16.0809 17.8214 16.4167 18.1572 16.4167 18.5714V20.25H20.5556C21.0065 20.25 21.438 20.072 21.7554 19.7566C22.0727 19.4415 22.25 19.015 22.25 18.5714V15.5897C21.6845 15.4538 21.1618 15.1655 20.7429 14.7493C20.1433 14.1536 19.8056 13.3446 19.8056 12.5C19.8056 11.6554 20.1433 10.8464 20.7429 10.2507C21.1618 9.8345 21.6845 9.54618 22.25 9.41027V6.42857C22.25 5.98497 22.0727 5.55854 21.7554 5.24337C21.438 4.92803 21.0065 4.75 20.5556 4.75H16.4167V6.42857C16.4167 6.84279 16.0809 7.17857 15.6667 7.17857C15.2525 7.17857 14.9167 6.84279 14.9167 6.42857V4.75H3.44444ZM3.44444 3.25C2.5988 3.25 1.78681 3.58371 1.18736 4.17926C0.587751 4.77497 0.25 5.58398 0.25 6.42857V10.0714C0.25 10.4856 0.585786 10.8214 1 10.8214C1.45097 10.8214 1.88248 10.9995 2.19988 11.3148C2.51712 11.63 2.69444 12.0564 2.69444 12.5C2.69444 12.9436 2.51712 13.37 2.19988 13.6852C1.88248 14.0005 1.45097 14.1786 1 14.1786C0.585786 14.1786 0.25 14.5144 0.25 14.9286V18.5714C0.25 19.416 0.587752 20.225 1.18736 20.8207C1.78681 21.4163 2.5988 21.75 3.44444 21.75H20.5556C21.4012 21.75 22.2132 21.4163 22.8126 20.8207C23.4122 20.225 23.75 19.416 23.75 18.5714V14.9286C23.75 14.5144 23.4142 14.1786 23 14.1786C22.549 14.1786 22.1175 14.0005 21.8001 13.6852C21.4829 13.37 21.3056 12.9436 21.3056 12.5C21.3056 12.0564 21.4829 11.63 21.8001 11.3148C22.1175 10.9995 22.549 10.8214 23 10.8214C23.4142 10.8214 23.75 10.4856 23.75 10.0714V6.42857C23.75 5.58398 23.4122 4.77497 22.8126 4.17926C22.2132 3.58371 21.4012 3.25 20.5556 3.25H3.44444ZM15.6667 10.5357C16.0809 10.5357 16.4167 10.8715 16.4167 11.2857V13.7143C16.4167 14.1285 16.0809 14.4643 15.6667 14.4643C15.2525 14.4643 14.9167 14.1285 14.9167 13.7143V11.2857C14.9167 10.8715 15.2525 10.5357 15.6667 10.5357Z" fill="#303234"/>
</svg>
