<svg width="24" height="24" viewBox="0 0 24 24" fill="none" xmlns="http://www.w3.org/2000/svg">
<path fill-rule="evenodd" clip-rule="evenodd" d="M9.0794 1.75105C8.36417 1.7324 7.6675 1.96286 7.11346 2.39806C6.55979 2.83297 6.1853 3.44316 6.05212 4.11783C5.91898 4.79229 6.03466 5.49182 6.38057 6.09275C6.58191 6.44254 6.47034 6.88894 6.12811 7.10287C5.73016 7.35164 5.39944 7.68764 5.16158 8.08245C4.92377 8.47716 4.78512 8.92003 4.75585 9.37513C4.72658 9.83022 4.8074 10.2861 4.99241 10.7061C5.17746 11.1261 5.46192 11.4992 5.8241 11.7941C6.04838 11.9768 6.14764 12.2721 6.07919 12.5532C5.97872 12.9657 5.97191 13.3944 6.05918 13.8097C6.14646 14.225 6.32594 14.6176 6.58606 14.9598C6.84623 15.3021 7.18093 15.5857 7.56746 15.7898C7.95098 15.9923 8.37576 16.1112 8.81227 16.1377L9.01028 16.1432H10.7503V13.5349L8.47548 11.3103C8.17933 11.0207 8.17403 10.5459 8.46363 10.2497C8.75324 9.95357 9.22808 9.94827 9.52423 10.2379L10.7503 11.4368V7.10632C10.7503 6.69211 11.0861 6.35632 11.5003 6.35632C11.9145 6.35632 12.2503 6.69211 12.2503 7.10632V10.2142L13.4763 9.01528C13.7725 8.72568 14.2473 8.73098 14.5369 9.02713C14.8265 9.32328 14.8212 9.79812 14.5251 10.0877L12.2503 12.3123V13.2186C12.2503 13.2191 12.2503 13.2196 12.2503 13.22V16.1432H14.0007C14.4566 16.1433 14.9062 16.0423 15.3152 15.8486C15.7242 15.6549 16.0815 15.3739 16.3611 15.0277C16.6407 14.6816 16.8355 14.2793 16.9322 13.8513C17.0289 13.4233 17.0252 12.9796 16.9213 12.5531C16.8529 12.2722 16.9521 11.9769 17.1763 11.7942C17.5385 11.4992 17.8229 11.1261 18.0078 10.706C18.1928 10.286 18.2735 9.83007 18.2441 9.37498C18.2147 8.91988 18.076 8.47702 17.8381 8.08235C17.6001 7.68759 17.2693 7.35164 16.8713 7.10296C16.5292 6.88918 16.4174 6.44301 16.6185 6.09321C16.9637 5.49239 17.079 4.79323 16.9457 4.1192C16.8124 3.44495 16.4381 2.83517 15.8848 2.40046C15.3311 1.96544 14.635 1.73492 13.9201 1.75321C13.2053 1.7715 12.5229 2.03728 11.9937 2.49957C11.7109 2.74666 11.2889 2.74647 11.0063 2.49913C10.4773 2.03611 9.79461 1.7697 9.0794 1.75105ZM10.7503 17.6432V23C10.7503 23.4142 11.0861 23.75 11.5003 23.75C11.9145 23.75 12.2503 23.4142 12.2503 23V17.6432H14.0005C14.0005 17.6432 14.0006 17.6432 14.0005 17.6432C14.6776 17.6433 15.3466 17.4935 15.9572 17.2043C16.5679 16.915 17.1052 16.4936 17.5279 15.9703C17.9507 15.447 18.2477 14.8356 18.3954 14.1818C18.5092 13.6778 18.5319 13.1594 18.4637 12.6499C18.8491 12.2639 19.1606 11.8103 19.3806 11.3104C19.6622 10.6709 19.7859 9.9746 19.741 9.27838C19.6961 8.58218 19.4839 7.90709 19.1228 7.30798C18.8778 6.90155 18.5691 6.5381 18.2097 6.23008C18.5026 5.46845 18.5772 4.63712 18.4173 3.82827C18.2134 2.79726 17.6428 1.87407 16.8115 1.22096C15.9806 0.56814 14.9424 0.226559 13.8818 0.253701C13.0297 0.275505 12.2046 0.534209 11.5007 0.99534C10.7967 0.533261 9.97116 0.273798 9.11851 0.25156C8.05726 0.22388 7.01832 0.56536 6.18688 1.21847C5.35506 1.87186 4.78417 2.79567 4.58052 3.82734C4.42074 4.63674 4.49576 5.46856 4.78928 6.23047C4.43012 6.53852 4.12159 6.90197 3.87675 7.30835C3.51575 7.90753 3.30373 8.58265 3.25895 9.27885C3.21416 9.97506 3.33799 10.6713 3.61972 11.3108C3.83987 11.8105 4.15135 12.2641 4.53678 12.65C4.47148 13.1379 4.48951 13.6341 4.59125 14.1182C4.72459 14.7526 4.99824 15.3497 5.3919 15.8676C5.78552 16.3854 6.28936 16.8112 6.86716 17.1163C7.44492 17.4213 8.08311 17.5984 8.73695 17.6358C8.74429 17.6362 8.75164 17.6366 8.75899 17.6368L8.97903 17.6429L8.99986 17.6432H10.7503Z" fill="#303234"/>
</svg>
