<svg width="24" height="24" viewBox="0 0 24 24" fill="none" xmlns="http://www.w3.org/2000/svg">
<path fill-rule="evenodd" clip-rule="evenodd" d="M3.56953 1.51197C3.83795 1.82517 3.80291 2.296 3.49203 2.5661L3.4849 2.57261C3.47646 2.58042 3.4613 2.59478 3.44095 2.61535C3.40005 2.6567 3.33937 2.72193 3.27057 2.80841C3.13105 2.98379 2.96965 3.23207 2.86419 3.53338C2.67258 4.08082 2.61664 4.92275 3.56451 6.00617C4.86664 7.4945 4.92258 8.90257 4.55169 9.96219C4.3759 10.4644 4.11543 10.8589 3.90338 11.1255C3.7964 11.2599 3.69888 11.3654 3.62552 11.4396C3.58874 11.4768 3.55776 11.5064 3.53434 11.528C3.52262 11.5389 3.51276 11.5478 3.50499 11.5547L3.49491 11.5636L3.49109 11.5669L3.48949 11.5683L3.48877 11.5689C3.48843 11.5692 3.4881 11.5695 3.00609 11.0071L3.4881 11.5695C3.17358 11.839 2.70011 11.8026 2.43057 11.4881C2.16215 11.1749 2.19719 10.704 2.50807 10.4339L2.5152 10.4274C2.52364 10.4196 2.5388 10.4052 2.55915 10.3847C2.60005 10.3433 2.66073 10.2781 2.72953 10.1916C2.86905 10.0162 3.03045 9.76796 3.13591 9.46665C3.32752 8.91921 3.38346 8.07728 2.43559 6.99386C1.13346 5.50553 1.07752 4.09746 1.44841 3.03783C1.6242 2.53561 1.88468 2.1411 2.09672 1.87456C2.2037 1.74009 2.30123 1.63458 2.37458 1.56043C2.41136 1.52326 2.44234 1.49367 2.46576 1.47199C2.47748 1.46113 2.48734 1.45223 2.49511 1.44532L2.50519 1.43643L2.50901 1.43311L2.51062 1.43172L2.51134 1.4311C2.51167 1.43081 2.512 1.43053 3.00005 2.00001L2.512 1.43053C2.82652 1.16099 3.29999 1.19745 3.56953 1.51197ZM6.49204 2.5661C6.80291 2.29599 6.83794 1.82517 6.56953 1.51197C6.29999 1.19745 5.82652 1.16099 5.512 1.43053L6.00005 2.00001C5.512 1.43053 5.51167 1.43081 5.51134 1.4311L5.51062 1.43172L5.50902 1.43311L5.50519 1.43643L5.49511 1.44532C5.48734 1.45223 5.47748 1.46113 5.46576 1.47199C5.44234 1.49367 5.41136 1.52326 5.37458 1.56043C5.30123 1.63458 5.2037 1.74009 5.09672 1.87456C4.88468 2.1411 4.6242 2.53561 4.44841 3.03783C4.07752 4.09746 4.13346 5.50553 5.43559 6.99386C6.38346 8.07728 6.32752 8.91921 6.13591 9.46665C6.03045 9.76796 5.86905 10.0162 5.72953 10.1916C5.66073 10.2781 5.60005 10.3433 5.55915 10.3847C5.5388 10.4052 5.52364 10.4196 5.5152 10.4274L5.50807 10.4339C5.19719 10.704 5.16215 11.1749 5.43057 11.4881C5.70011 11.8026 6.17358 11.839 6.4881 11.5695L6.01201 11.014C6.4881 11.5695 6.48843 11.5692 6.48877 11.5689L6.48949 11.5683L6.49109 11.5669L6.49491 11.5636L6.50499 11.5547C6.51276 11.5478 6.52262 11.5389 6.53434 11.528C6.55776 11.5064 6.58874 11.4768 6.62552 11.4396C6.69888 11.3654 6.7964 11.2599 6.90338 11.1255C7.11543 10.8589 7.37591 10.4644 7.55169 9.96219C7.92258 8.90257 7.86664 7.4945 6.56451 6.00617C5.61664 4.92275 5.67258 4.08082 5.86419 3.53338C5.96965 3.23207 6.13105 2.98379 6.27057 2.80841C6.33937 2.72193 6.40005 2.6567 6.44095 2.61535C6.4613 2.59478 6.47646 2.58042 6.4849 2.57261L6.49204 2.5661ZM9.49204 2.5661C9.80291 2.29599 9.83794 1.82517 9.56953 1.51197C9.29999 1.19745 8.82652 1.16099 8.512 1.43053L9.00005 2.00001C8.512 1.43053 8.51167 1.43081 8.51134 1.4311L8.51062 1.43172L8.50902 1.43311L8.50519 1.43643L8.49511 1.44532C8.48734 1.45223 8.47748 1.46113 8.46576 1.47199C8.44234 1.49367 8.41136 1.52326 8.37458 1.56043C8.30123 1.63458 8.2037 1.74009 8.09672 1.87456C7.88468 2.1411 7.6242 2.53561 7.44841 3.03783C7.07752 4.09746 7.13346 5.50553 8.43559 6.99386C9.38346 8.07728 9.32752 8.91921 9.13591 9.46665C9.03045 9.76796 8.86905 10.0162 8.72953 10.1916C8.66073 10.2781 8.60005 10.3433 8.55915 10.3847C8.5388 10.4052 8.52364 10.4196 8.5152 10.4274L8.50808 10.4339C8.19719 10.704 8.16215 11.1749 8.43057 11.4881C8.70011 11.8026 9.17358 11.839 9.4881 11.5695L9.00005 11C9.4881 11.5695 9.48843 11.5692 9.48877 11.5689L9.48949 11.5683L9.49109 11.5669L9.49491 11.5636L9.50499 11.5547C9.51276 11.5478 9.52262 11.5389 9.53434 11.528C9.55776 11.5064 9.58874 11.4768 9.62552 11.4396C9.69888 11.3654 9.7964 11.2599 9.90338 11.1255C10.1154 10.8589 10.3759 10.4644 10.5517 9.96219C10.9226 8.90257 10.8666 7.4945 9.56451 6.00617C8.61664 4.92275 8.67258 4.08082 8.86419 3.53338C8.96966 3.23207 9.13105 2.98379 9.27057 2.80841C9.33937 2.72193 9.40005 2.6567 9.44095 2.61535C9.4613 2.59478 9.47646 2.58042 9.4849 2.57261L9.49204 2.5661ZM22.0025 9.29887C17.7003 9.01225 14.2287 10.0009 12.266 11.9639C11.2729 12.9571 10.6803 14.1907 10.5889 15.5818C10.5085 16.8059 10.8186 18.105 11.5141 19.4257L10.4698 20.4695C10.1768 20.7623 10.1767 21.2372 10.4695 21.5302C10.7624 21.8232 11.2372 21.8233 11.5302 21.5304L12.5747 20.4865C13.8954 21.1822 15.1947 21.4925 16.4188 21.4121C17.81 21.3208 19.0436 20.7281 20.0367 19.7349C21.9995 17.7719 22.988 14.2999 22.701 9.9973C22.676 9.62239 22.3774 9.32385 22.0025 9.29887ZM16.3205 19.9154C15.5379 19.9668 14.6557 19.8038 13.6949 19.3663L16.0036 17.057C16.2964 16.7641 16.2964 16.2892 16.0034 15.9964C15.7105 15.7035 15.2356 15.7036 14.9428 15.9965L12.6344 18.3055C12.1971 17.3448 12.0342 16.4627 12.0857 15.6801C12.1515 14.6773 12.5724 13.7789 13.3267 13.0245C14.7743 11.5767 17.4959 10.6318 21.2382 10.7618C21.3685 14.5045 20.4237 17.2264 18.976 18.6742C18.2217 19.4286 17.3233 19.8495 16.3205 19.9154Z" fill="#303234"/>
</svg>
