<svg width="24" height="24" viewBox="0 0 24 24" fill="none" xmlns="http://www.w3.org/2000/svg">
<path fill-rule="evenodd" clip-rule="evenodd" d="M8.61331 3.38962C5.17998 4.74112 2.75 8.08678 2.75 12C2.75 17.1086 6.89137 21.25 12 21.25C17.1086 21.25 21.25 17.1086 21.25 12C21.25 6.89137 17.1086 2.75 12 2.75C11.9986 2.75 11.9971 2.75 11.9957 2.75C11.6325 2.75068 11.2747 2.83931 10.9532 3.00833C10.6303 3.17801 10.3535 3.42363 10.1467 3.72403C9.93988 4.02444 9.80918 4.37062 9.76586 4.73276C9.72254 5.0949 9.7679 5.46215 9.89805 5.80286C10.0282 6.14357 10.2392 6.44754 10.5129 6.68858C10.7866 6.92963 11.1149 7.10051 11.4693 7.18653C11.8237 7.27255 12.1938 7.27111 12.5475 7.18235C12.9013 7.09359 13.2281 6.92016 13.5 6.677C13.8087 6.40085 14.2829 6.42725 14.559 6.73598C14.8352 7.04471 14.8088 7.51885 14.5 7.795C14.047 8.20026 13.5022 8.48931 12.9126 8.63725C12.323 8.78519 11.7063 8.78758 11.1155 8.64422C10.5248 8.50086 9.97778 8.21604 9.52159 7.81431C9.06539 7.41257 8.71369 6.90595 8.49679 6.3381C8.27988 5.77024 8.20428 5.15817 8.27647 4.5546C8.32496 4.14926 8.43914 3.75592 8.61331 3.38962ZM12 1.25C17.9371 1.25001 22.75 6.06295 22.75 12C22.75 17.9371 17.9371 22.75 12 22.75C6.06294 22.75 1.25 17.9371 1.25 12C1.25 6.06294 6.06294 1.25 12 1.25C12 1.25 12 1.25 12 1.25ZM8.00001 10.25C7.36346 10.25 6.83077 10.5693 6.44394 10.9967C6.16599 11.3038 6.18962 11.7781 6.49673 12.0561C6.80384 12.334 7.27812 12.3104 7.55607 12.0033C7.74124 11.7987 7.89655 11.75 8.00001 11.75C8.10346 11.75 8.25877 11.7987 8.44394 12.0033C8.72189 12.3104 9.19617 12.334 9.50328 12.0561C9.81039 11.7781 9.83403 11.3038 9.55607 10.9967C9.16924 10.5693 8.63655 10.25 8.00001 10.25ZM16 10.25C15.3635 10.25 14.8308 10.5693 14.4439 10.9967C14.166 11.3038 14.1896 11.7781 14.4967 12.0561C14.8038 12.334 15.2781 12.3104 15.5561 12.0033C15.7412 11.7987 15.8965 11.75 16 11.75C16.1035 11.75 16.2588 11.7987 16.4439 12.0033C16.7219 12.3104 17.1962 12.334 17.5033 12.0561C17.8104 11.7781 17.834 11.3038 17.5561 10.9967C17.1692 10.5693 16.6365 10.25 16 10.25ZM10.5556 15.4962C10.2774 15.1894 9.80311 15.1662 9.49625 15.4444C9.18938 15.7226 9.16616 16.1969 9.44438 16.5038C10.1177 17.2464 10.9931 17.75 12 17.75C13.0069 17.75 13.8823 17.2464 14.5556 16.5038C14.8339 16.1969 14.8106 15.7226 14.5038 15.4444C14.1969 15.1662 13.7226 15.1894 13.4444 15.4962C12.9717 16.0176 12.4731 16.25 12 16.25C11.5269 16.25 11.0283 16.0176 10.5556 15.4962Z" fill="#303234"/>
</svg>
