<svg width="24" height="24" viewBox="0 0 24 24" fill="none" xmlns="http://www.w3.org/2000/svg">
<path fill-rule="evenodd" clip-rule="evenodd" d="M16.9526 2.06653H16.9515C16.2443 2.06763 15.5514 2.26506 14.9498 2.63683C14.3483 3.00859 13.8618 3.54009 13.5446 4.17208L11.5565 8.14829C11.5404 8.161 11.5248 8.17433 11.5099 8.18824H7.25834C6.04021 8.18824 4.85601 7.77291 3.90378 7.01184L1.75452 5.29106C1.52942 5.11084 1.22093 5.07563 0.961009 5.20049C0.701088 5.32535 0.535769 5.58817 0.535769 5.87653V18.8784C0.526201 19.2818 0.596818 19.683 0.743563 20.0589C0.891638 20.4382 1.11422 20.7839 1.39817 21.0757C1.68212 21.3675 2.02167 21.5995 2.39676 21.7579C2.77186 21.9162 3.17489 21.9978 3.58206 21.9978C3.98922 21.9978 4.39225 21.9162 4.76735 21.7579C5.14244 21.5995 5.48199 21.3675 5.76594 21.0757C6.04989 20.7839 6.27247 20.4382 6.42055 20.0589C6.56729 19.683 6.63791 19.2818 6.62834 18.8784V18.1217C6.62834 17.6919 6.9771 17.3425 7.40748 17.3425H10.4709C10.9029 17.3425 11.2518 17.6918 11.2518 18.1217V18.8784C11.2422 19.2817 11.3128 19.683 11.4596 20.0589C11.6076 20.4382 11.8302 20.7839 12.1142 21.0757C12.3981 21.3675 12.7377 21.5995 13.1128 21.7579C13.4879 21.9162 13.8909 21.9978 14.2981 21.9978C14.7052 21.9978 15.1083 21.9162 15.4833 21.7579C15.8584 21.5995 16.198 21.3675 16.4819 21.0757C16.7659 20.7839 16.9885 20.4382 17.1365 20.0589C17.2833 19.683 17.3539 19.2818 17.3443 18.8785V13.5145H19.6526C21.7566 13.5145 23.4643 11.8096 23.4643 9.70453V8.17367C23.4643 7.85085 23.2578 7.56425 22.9515 7.46216L18.8718 6.10225V2.81653C18.8718 2.40232 18.536 2.06653 18.1218 2.06653H16.9526ZM11.5561 9.68824H7.25834C5.69946 9.68824 4.18519 9.15714 2.96719 8.1835L2.03577 7.43778V18.888L2.03549 18.9084C2.02984 19.1151 2.06567 19.3208 2.14085 19.5134C2.21603 19.7059 2.32905 19.8815 2.47322 20.0297C2.61739 20.1778 2.78979 20.2956 2.98024 20.376C3.17069 20.4564 3.37532 20.4978 3.58206 20.4978C3.78879 20.4978 3.99342 20.4564 4.18387 20.376C4.37432 20.2956 4.54672 20.1778 4.69089 20.0297C4.83506 19.8815 4.94808 19.7059 5.02326 19.5134C5.09844 19.3208 5.13427 19.1151 5.12862 18.9084L5.12834 18.888V18.1217C5.12834 16.8646 6.14758 15.8425 7.40748 15.8425H10.4709C11.7292 15.8425 12.7518 16.8612 12.7518 18.1217V18.888L12.7515 18.9084C12.7458 19.1151 12.7817 19.3208 12.8569 19.5134C12.932 19.7059 13.045 19.8815 13.1892 20.0297C13.3334 20.1778 13.5058 20.2956 13.6962 20.376C13.8867 20.4564 14.0913 20.4978 14.2981 20.4978C14.5048 20.4978 14.7094 20.4564 14.8999 20.376C15.0903 20.2956 15.2627 20.1778 15.4069 20.0297C15.5511 19.8815 15.6641 19.7059 15.7393 19.5134C15.8144 19.3208 15.8503 19.1151 15.8446 18.9084L15.8443 18.888V13.3725C13.4432 12.7636 12.1225 11.0048 11.5561 9.68824ZM16.6806 12.0145H19.6526C20.9292 12.0145 21.9643 10.9801 21.9643 9.70453V8.71424L17.8846 7.35433C17.5783 7.25224 17.3718 6.96564 17.3718 6.64281V3.56653H16.9533C16.5241 3.56729 16.1035 3.68717 15.7384 3.9128C15.3733 4.13845 15.078 4.46102 14.8854 4.84458L12.8556 8.90426C13.2437 9.96042 14.3881 11.6413 16.6806 12.0145Z" fill="#303234"/>
</svg>
