<svg width="24" height="24" viewBox="0 0 24 24" fill="none" xmlns="http://www.w3.org/2000/svg">
<path fill-rule="evenodd" clip-rule="evenodd" d="M6.91643 2.75C5.84236 2.75 5.04808 3.56025 5.04808 4.47059C5.04808 5.1996 5.65699 5.9128 6.51424 6.123C6.8096 5.38519 7.26331 4.70885 7.85298 4.14189C8.05023 3.95224 8.25981 3.77756 8.47987 3.61854C8.14989 3.10881 7.57134 2.75 6.91643 2.75ZM9.79869 2.90038C9.22126 1.94103 8.1615 1.25 6.91643 1.25C5.09721 1.25 3.54808 2.65093 3.54808 4.47059C3.54808 6.0194 4.73216 7.21606 6.15061 7.57444C6.12872 7.77341 6.1176 7.97433 6.1176 8.17647C6.1176 8.8581 6.24402 9.52594 6.48346 10.1513L4.5596 10.68L4.55748 10.6805C4.15601 10.7887 3.7794 10.9734 3.45025 11.2251C3.12045 11.4774 2.84464 11.7921 2.64059 12.1519C2.43648 12.5117 2.30869 12.9087 2.26595 13.3193C2.22322 13.73 2.26659 14.1445 2.39306 14.5378C2.5195 14.9311 2.72604 15.2941 2.99892 15.606C3.27172 15.9178 3.60519 16.1721 3.97861 16.3554C4.10705 16.4184 4.23941 16.4726 4.37473 16.5178C4.03235 16.693 3.71489 16.9176 3.43424 17.1874C2.68818 17.9047 2.26331 18.8841 2.26331 19.9118C2.26331 20.9394 2.68818 21.9188 3.43424 22.6361C4.1793 23.3525 5.18375 23.75 6.22522 23.75C7.26669 23.75 8.27115 23.3525 9.0162 22.6361C9.41883 22.249 9.72791 21.7856 9.92715 21.2794H14.0862C14.2854 21.7856 14.5945 22.249 14.9971 22.6361C15.7422 23.3525 16.7466 23.75 17.7881 23.75C18.8296 23.75 19.834 23.3525 20.5791 22.6361C21.3251 21.9188 21.75 20.9394 21.75 19.9118C21.75 18.8841 21.3251 17.9047 20.5791 17.1874C20.2044 16.8271 19.764 16.5475 19.2864 16.3585C19.3062 16.3497 19.326 16.3407 19.3457 16.3314C19.721 16.1554 20.0579 15.9081 20.3356 15.6025C20.6134 15.297 20.8263 14.9394 20.9604 14.5501C21.0944 14.1609 21.1464 13.7489 21.1127 13.3389C21.079 12.9289 20.9604 12.5307 20.7651 12.1678C20.5699 11.805 20.3023 11.4854 19.9795 11.2268C19.6581 10.9692 19.2882 10.7771 18.8919 10.6601L17.4983 10.2319C17.7582 9.58344 17.8957 8.88746 17.8957 8.17647C17.8957 7.97806 17.885 7.78081 17.8639 7.58544C19.294 7.22619 20.4652 6.0169 20.4652 4.47059C20.4652 2.64379 18.8957 1.25 17.0699 1.25C15.8479 1.25 14.8086 2.00025 14.2103 2.89867C13.5156 2.62787 12.7681 2.48529 12.0067 2.48529C11.2436 2.48529 10.4945 2.62847 9.79869 2.90038ZM15.5341 3.61901C15.7539 3.77791 15.9633 3.95243 16.1603 4.14189C16.7526 4.71139 17.2078 5.39124 17.503 6.1329C18.363 5.92221 18.9652 5.20579 18.9652 4.47059C18.9652 3.56739 18.1657 2.75 17.0699 2.75C16.4929 2.75 15.908 3.11878 15.5341 3.61901ZM16.7367 11.5671C16.5624 11.7941 16.37 12.0095 16.1603 12.211C16.1586 12.2127 16.1568 12.2144 16.1551 12.2161L17.2327 14.9812L17.4139 15.042C17.6231 15.1139 17.846 15.1451 18.0692 15.1332C18.2923 15.1214 18.5098 15.0667 18.7087 14.9734C18.9075 14.8801 19.083 14.7505 19.2257 14.5935C19.3683 14.4367 19.4753 14.2557 19.5421 14.0618C19.6088 13.868 19.6343 13.6641 19.6177 13.4618C19.6011 13.2595 19.5425 13.0612 19.4442 12.8786C19.3459 12.6959 19.2095 12.5319 19.0415 12.3973C18.8735 12.2627 18.6775 12.1605 18.4647 12.098L18.4556 12.0953L16.7367 11.5671ZM15.8981 15.6877C15.9149 15.7963 15.9555 15.8997 16.0161 15.9904L16.1776 16.4049C15.7432 16.5921 15.3423 16.8555 14.9971 17.1874C14.2831 17.8739 13.8633 18.8003 13.8285 19.7794H10.1848C10.15 18.8003 9.73017 17.8739 9.0162 17.1874C8.53114 16.721 7.93613 16.3898 7.29254 16.2154L7.43797 15.8677C7.43936 15.8645 7.44072 15.8612 7.44206 15.8579L8.68832 12.8783C9.66137 13.5196 10.817 13.8676 12.0067 13.8676C13.0283 13.8676 14.0249 13.611 14.9022 13.1323L15.8981 15.6877ZM7.22775 11.5024C7.31321 11.6171 7.40323 11.7289 7.49771 11.8376L6.1756 14.9985L5.91371 15.1067C5.70948 15.17 5.49375 15.195 5.2786 15.18C5.0547 15.1644 4.83731 15.1059 4.63939 15.0088C4.44152 14.9117 4.26792 14.7784 4.12784 14.6183C3.98783 14.4583 3.88405 14.2746 3.82106 14.0787C3.7581 13.8828 3.73677 13.6776 3.7579 13.4746C3.77902 13.2716 3.84234 13.0735 3.94533 12.8919C4.04836 12.7103 4.18938 12.5483 4.36153 12.4166C4.53374 12.2849 4.73327 12.1865 4.94874 12.1286L7.22775 11.5024ZM8.94578 11.18C8.91631 11.1461 8.8836 11.1146 8.84786 11.0861C8.05603 10.3023 7.6176 9.25812 7.6176 8.17647C7.6176 7.07462 8.07257 6.01164 8.89262 5.22317C9.71367 4.43373 10.8333 3.98529 12.0067 3.98529C13.18 3.98529 14.2996 4.43373 15.1207 5.22317C15.9407 6.01164 16.3957 7.07462 16.3957 8.17647C16.3957 9.27833 15.9407 10.3413 15.1207 11.1298C14.2996 11.9192 13.18 12.3676 12.0067 12.3676C10.8584 12.3676 9.76165 11.9382 8.94578 11.18ZM6.22522 17.5735C5.56299 17.5735 4.93352 17.8267 4.47388 18.2687C4.01524 18.7097 3.76331 19.3013 3.76331 19.9118C3.76331 20.5222 4.01524 21.1139 4.47388 21.5548C4.93352 21.9968 5.56299 22.25 6.22522 22.25C6.88746 22.25 7.51693 21.9968 7.97657 21.5548C8.4352 21.1139 8.68713 20.5222 8.68713 19.9118C8.68713 19.3013 8.4352 18.7097 7.97657 18.2687C7.51693 17.8267 6.88746 17.5735 6.22522 17.5735ZM17.7881 17.5735C17.1259 17.5735 16.4964 17.8267 16.0367 18.2687C15.5781 18.7097 15.3262 19.3013 15.3262 19.9118C15.3262 20.5222 15.5781 21.1139 16.0367 21.5548C16.4964 21.9968 17.1259 22.25 17.7881 22.25C18.4503 22.25 19.0798 21.9968 19.5394 21.5548C19.9981 21.1139 20.25 20.5222 20.25 19.9118C20.25 19.3013 19.9981 18.7097 19.5394 18.2687C19.0798 17.8267 18.4503 17.5735 17.7881 17.5735Z" fill="#303234"/>
</svg>
