<svg width="24" height="24" viewBox="0 0 24 24" fill="none" xmlns="http://www.w3.org/2000/svg">
<path fill-rule="evenodd" clip-rule="evenodd" d="M22.5303 1.46968C22.6961 1.63549 22.7748 1.86931 22.743 2.10165C22.2977 5.3572 20.9818 8.43214 18.934 11.0019C17.997 12.1777 16.9227 13.2279 15.7384 14.1323C15.6964 14.3651 15.5454 14.5743 15.3144 14.681C15.1769 14.7444 15.0301 14.7627 14.8908 14.7421C13.8759 15.429 12.791 16.0142 11.6513 16.4868C11.8509 17.5018 11.7463 18.5532 11.3504 19.5091C10.953 20.4684 10.2801 21.2883 9.41674 21.8652C8.55338 22.4421 7.53835 22.75 6.5 22.75H2C1.58579 22.75 1.25 22.4142 1.25 22V17.5C1.25 16.4617 1.55791 15.4466 2.13478 14.5833C2.71166 13.7199 3.5316 13.047 4.49091 12.6496C5.44676 12.2537 6.4982 12.1491 7.51319 12.3487C7.98576 11.2089 8.57104 10.124 9.25795 9.10911C9.23734 8.9698 9.25567 8.82311 9.31909 8.6857C9.42569 8.45474 9.63487 8.30371 9.86754 8.26174C10.772 7.07739 11.8222 6.00302 12.9981 5.06598C15.5678 3.01821 18.6428 1.70223 21.8983 1.25693C22.1307 1.22515 22.3645 1.30386 22.5303 1.46968ZM10.4248 10.0622C9.84202 10.9384 9.34124 11.8703 8.93078 12.8466C9.40073 13.0921 9.83332 13.4087 10.2123 13.7877C10.5913 14.1667 10.9079 14.5993 11.1533 15.0692C12.1296 14.6587 13.0616 14.1579 13.9378 13.5752C13.1001 12.1128 11.8872 10.8999 10.4248 10.0622ZM15.1546 12.6843C14.2167 11.1036 12.8964 9.78325 11.3157 8.84537C12.086 7.88693 12.9628 7.01209 13.9329 6.23907C16.0224 4.574 18.4758 3.43608 21.086 2.91395C20.5639 5.52415 19.426 7.97758 17.7609 10.0671C16.9879 11.0371 16.1131 11.914 15.1546 12.6843ZM7.23159 13.8221C6.50416 13.6774 5.75016 13.7516 5.06494 14.0355C4.37971 14.3193 3.79404 14.7999 3.38199 15.4166C2.96993 16.0333 2.75 16.7583 2.75 17.5V21.25H6.5C7.24168 21.25 7.9667 21.0301 8.58339 20.618C9.20007 20.206 9.68072 19.6203 9.96455 18.9351C10.2484 18.2498 10.3226 17.4958 10.1779 16.7684C10.0332 16.041 9.6761 15.3728 9.15165 14.8484C8.6272 14.3239 7.95902 13.9668 7.23159 13.8221Z" fill="#303234"/>
</svg>
