<svg width="24" height="24" viewBox="0 0 24 24" fill="none" xmlns="http://www.w3.org/2000/svg">
<path fill-rule="evenodd" clip-rule="evenodd" d="M18.5873 2.92404C18.3098 2.80906 18.0123 2.74992 17.7119 2.75C17.4116 2.75008 17.1141 2.80937 16.8367 2.92449C16.5592 3.03961 16.3071 3.20831 16.0949 3.42094L15.0396 4.47792L19.5235 8.96273L20.5804 7.90636C21.0091 7.47754 21.25 6.89591 21.25 6.2894C21.25 5.6829 21.0091 5.10127 20.5804 4.67245L19.3294 3.4201C19.117 3.20758 18.8649 3.03902 18.5873 2.92404ZM18.4629 10.0234L13.9797 5.53935L3.95037 15.5816L8.44172 20.0505L18.4629 10.0234ZM7.29146 21.022L2.97936 16.7315C2.82986 17.0396 2.75 17.3803 2.75 17.7289V21.25H6.29784C6.29792 21.25 6.29777 21.25 6.29784 21.25C6.59769 21.2499 6.8948 21.1907 7.17177 21.0758C7.21222 21.059 7.25213 21.0411 7.29146 21.022ZM8.97397 21.6399C8.62278 21.9917 8.20571 22.2708 7.7466 22.4613C7.28749 22.6517 6.79534 22.7499 6.29828 22.75H2C1.58579 22.75 1.25 22.4142 1.25 22V17.7289C1.25 16.7256 1.64888 15.7628 2.35804 15.0533C2.35814 15.0532 2.35795 15.0534 2.35804 15.0533L13.4242 3.97284C13.4321 3.9642 13.4402 3.9557 13.4485 3.94735C13.4566 3.9393 13.4648 3.93147 13.4731 3.92386L15.0333 2.36119C15.0333 2.36118 15.0333 2.3612 15.0333 2.36119C15.3848 2.00908 15.8023 1.72967 16.2618 1.53901C16.7214 1.34834 17.214 1.25013 17.7116 1.25C18.2091 1.24987 18.7018 1.34782 19.1614 1.53825C19.6211 1.72869 20.0387 2.00786 20.3904 2.35981L21.6412 3.61191C22.3512 4.32205 22.75 5.28518 22.75 6.2894C22.75 7.29363 22.3512 8.25676 21.6412 8.96691L8.97397 21.6399Z" fill="#303234"/>
</svg>
