<svg width="24" height="24" viewBox="0 0 24 24" fill="none" xmlns="http://www.w3.org/2000/svg">
<path d="M8.7 18.1V17.4C8.51435 17.4 8.3363 17.4737 8.20503 17.605C8.07375 17.7363 8 17.9143 8 18.1H8.7ZM14.3 18.1H15C15 17.9143 14.9263 17.7363 14.795 17.605C14.6637 17.4737 14.4857 17.4 14.3 17.4V18.1ZM14.3 22.3V23C14.4857 23 14.6637 22.9263 14.795 22.795C14.9263 22.6637 15 22.4857 15 22.3H14.3ZM8.7 22.3H8C8 22.4857 8.07375 22.6637 8.20503 22.795C8.3363 22.9263 8.51435 23 8.7 23V22.3ZM3.1 3.4H17.1V2H3.1V3.4ZM17.8 4.1V6.9H19.2V4.1H17.8ZM17.1 7.6H3.1V9H17.1V7.6ZM2.4 6.9V4.1H1V6.9H2.4ZM3.1 7.6C2.91435 7.6 2.7363 7.52625 2.60503 7.39497C2.47375 7.2637 2.4 7.08565 2.4 6.9H1C1 7.45695 1.22125 7.9911 1.61508 8.38492C2.0089 8.77875 2.54305 9 3.1 9V7.6ZM17.8 6.9C17.8 7.08565 17.7263 7.2637 17.595 7.39497C17.4637 7.52625 17.2857 7.6 17.1 7.6V9C17.657 9 18.1911 8.77875 18.5849 8.38492C18.9788 7.9911 19.2 7.45695 19.2 6.9H17.8ZM17.1 3.4C17.2857 3.4 17.4637 3.47375 17.595 3.60503C17.7263 3.7363 17.8 3.91435 17.8 4.1H19.2C19.2 3.54305 18.9788 3.0089 18.5849 2.61508C18.1911 2.22125 17.657 2 17.1 2V3.4ZM3.1 2C2.54305 2 2.0089 2.22125 1.61508 2.61508C1.22125 3.0089 1 3.54305 1 4.1H2.4C2.4 3.91435 2.47375 3.7363 2.60503 3.60503C2.7363 3.47375 2.91435 3.4 3.1 3.4V2ZM20.6 8.3V10.3874H22V8.3H20.6ZM19.0768 12.4076L12.3232 14.3368L12.7082 15.6836L19.4618 13.753L19.0768 12.4076ZM10.8 16.3556V18.1H12.2V16.3556H10.8ZM12.3232 14.3368C11.8845 14.4621 11.4985 14.727 11.2236 15.0912C10.9488 15.4555 10.8001 15.8993 10.8 16.3556H12.2C12.2003 16.2036 12.25 16.0558 12.3417 15.9346C12.4334 15.8133 12.562 15.7252 12.7082 15.6836L12.3232 14.3368ZM20.6 10.3874C20.5999 10.8437 20.4512 11.2889 20.1764 11.6532C19.9015 12.0174 19.5155 12.2823 19.0768 12.4076L19.4618 13.753C20.1931 13.544 20.8364 13.1024 21.2944 12.4952C21.7524 11.8879 22.0001 11.148 22 10.3874H20.6ZM18.5 6.2C19.057 6.2 19.5911 6.42125 19.9849 6.81508C20.3788 7.2089 20.6 7.74305 20.6 8.3H22C22 7.37174 21.6313 6.4815 20.9749 5.82513C20.3185 5.16875 19.4283 4.8 18.5 4.8V6.2ZM8.7 18.8H14.3V17.4H8.7V18.8ZM13.6 18.1V22.3H15V18.1H13.6ZM14.3 21.6H8.7V23H14.3V21.6ZM9.4 22.3V18.1H8V22.3H9.4Z" fill="#303234"/>
</svg>
