<svg width="24" height="24" viewBox="0 0 24 24" fill="none" xmlns="http://www.w3.org/2000/svg">
<g clip-path="url(#clip0_22_612)">
<path fill-rule="evenodd" clip-rule="evenodd" d="M11.7454 5C8.31374 5 5.52485 7.75117 5.46398 11.1683C4.0573 11.498 2.83361 11.9438 1.90938 12.4899C0.889028 13.0929 0 13.9655 0 15.1251C0 15.9938 0.507313 16.7037 1.15713 17.2388C1.81251 17.7785 2.71144 18.228 3.74997 18.5898C5.83471 19.3159 8.66151 19.75 11.7454 19.75C14.8292 19.75 17.656 19.3159 19.7408 18.5898C20.7793 18.228 21.6782 17.7785 22.3336 17.2388C22.9834 16.7037 23.4907 15.9938 23.4907 15.1251C23.4907 13.9655 22.6017 13.0929 21.5814 12.4899C20.6571 11.9438 19.4334 11.498 18.0268 11.1683C17.9659 7.75117 15.177 5 11.7454 5ZM6.41183 12.4713L6.4442 12.632C4.86114 12.9509 3.59287 13.3988 2.74315 13.9009C1.84846 14.4296 1.63889 14.8763 1.63889 15.1251C1.63889 15.3071 1.74302 15.5983 2.19894 15.9737C2.64929 16.3446 3.3504 16.7151 4.28905 17.0421C6.15868 17.6933 8.79484 18.1111 11.7454 18.1111C14.6959 18.1111 17.3321 17.6933 19.2017 17.0421C20.1403 16.7151 20.8414 16.3446 21.2918 15.9737C21.7477 15.5983 21.8519 15.3071 21.8519 15.1251C21.8519 14.8763 21.6423 14.4296 20.7476 13.9009C19.8979 13.3988 18.6296 12.9509 17.0465 12.632L17.0699 12.5161C16.124 13.2809 14.4219 14.287 11.7454 14.287C9.04189 14.287 7.3244 13.2007 6.41183 12.4713ZM16.3771 10.9483C16.2058 8.53964 14.1977 6.63889 11.7454 6.63889C9.30212 6.63889 7.29973 8.52565 7.11565 10.9217C7.43614 11.2005 7.89724 11.5779 8.53631 11.9088L9.34567 9.88543C9.51375 9.46523 9.99064 9.26085 10.4108 9.42893C10.831 9.59701 11.0354 10.0739 10.8673 10.4941L10.0775 12.4688C10.5699 12.5803 11.1238 12.6481 11.7454 12.6481C14.3007 12.6481 15.7235 11.5585 16.3771 10.9483Z" fill="#303234"/>
</g>
<defs>
<clipPath id="clip0_22_612">
<rect width="24" height="24" fill="white"/>
</clipPath>
</defs>
</svg>
